<?xml version="1.0" encoding="utf-8"?>
<!-- Generator: Adobe Illustrator 27.7.0, SVG Export Plug-In . SVG Version: 6.00 Build 0)  -->
<svg version="1.1" id="Camada_1" xmlns="http://www.w3.org/2000/svg" xmlns:xlink="http://www.w3.org/1999/xlink" x="0px" y="0px"
	 viewBox="0 0 300 160" style="enable-background:new 0 0 300 160;" xml:space="preserve">
<style type="text/css">
	.st0{fill:#ECECEC;}
	.st1{fill:#E1E1E1;}
	.st2{fill:#F0F0F0;}
	.st3{fill:#1A2E35;}
	.st4{fill:#007CFF;}
	.st5{opacity:0.3;fill:#007CFF;}
	.st6{fill:#FFFFFF;}
</style>
<g>
	<g>
		<g>
			<path class="st0" d="M127.93,89.89l0.32-9.41l-5.78-1.89c-0.24-3.21-0.77-6.39-1.54-9.45l4.9-3.61l-3.33-8.84l-6.06,0.49
				c-1.44-2.86-3.14-5.58-5.04-8.13l3.14-5.24l-6.45-6.88l-5.41,2.77c-2.44-2.07-5.01-3.95-7.76-5.61l0.88-6.01l-8.59-3.9
				l-3.94,4.61c-3-0.97-6.1-1.7-9.32-2.18l-1.46-5.89l-9.43-0.32L61.2,26.2c-3.24,0.26-6.39,0.77-9.45,1.54l-3.64-4.87l-8.84,3.3
				l0.49,6.06c-2.86,1.47-5.58,3.16-8.13,5.06l-5.21-3.14l-6.91,6.42l2.77,5.44c-2.07,2.41-3.95,5.01-5.58,7.76l-6.01-0.9
				l-3.92,8.59l4.64,3.94c-0.97,3-1.73,6.13-2.18,9.32l-5.92,1.49L3,85.61l5.8,1.89c0.24,3.24,0.78,6.39,1.54,9.45l-4.89,3.61
				l3.33,8.84l6.06-0.49c1.44,2.86,3.14,5.58,5.04,8.13l-3.14,5.24l6.45,6.88l5.41-2.77c2.41,2.07,5.01,3.95,7.76,5.61l-0.9,6.01
				l8.59,3.9l3.96-4.61c3,0.97,6.1,1.7,9.32,2.18l1.46,5.89l9.43,0.32l1.86-5.78c3.24-0.26,6.39-0.77,9.45-1.54l3.61,4.87l8.84-3.3
				l-0.46-6.05c2.86-1.47,5.55-3.17,8.13-5.07l5.21,3.14l6.9-6.42l-2.77-5.44c2.07-2.41,3.95-5.01,5.58-7.76l6.01,0.9l3.92-8.59
				l-4.64-3.94c0.97-3,1.73-6.1,2.18-9.32L127.93,89.89z M64.36,120.37c-20.6-0.71-36.74-17.98-36.03-38.59
				c0.71-20.63,17.98-36.76,38.59-36.05c20.6,0.71,36.74,17.98,36.03,38.61C102.24,104.94,84.96,121.08,64.36,120.37z"/>
		</g>
		<g>
			<path class="st0" d="M288.93,58.78l2.37-2.22l-0.95-1.87c0.73-0.84,1.37-1.75,1.93-2.68l2.07,0.31l1.34-2.97l-1.6-1.36
				c0.34-1.05,0.59-2.13,0.75-3.21l2.04-0.51l0.11-3.25l-2-0.64c-0.09-1.1-0.26-2.18-0.52-3.26l1.68-1.25l-1.14-3.05L292.93,33
				c-0.49-0.97-1.07-1.9-1.74-2.8l1.08-1.79l-2.22-2.38l-1.86,0.95c-0.85-0.73-1.75-1.37-2.68-1.93l0.3-2.07l-2.96-1.35l-1.36,1.6
				c-1.05-0.34-2.13-0.59-3.22-0.75l-0.51-2.04l-3.25-0.12l-0.65,2c-1.09,0.08-2.18,0.26-3.25,0.53l-1.25-1.68l-3.05,1.14l0.17,2.09
				c-0.97,0.49-1.92,1.07-2.8,1.74l-1.81-1.08l-2.37,2.22l0.95,1.88c-0.73,0.85-1.37,1.75-1.93,2.68l-2.07-0.31l-1.34,2.97l1.6,1.36
				c-0.34,1.05-0.59,2.13-0.75,3.21l-2.04,0.51l-0.11,3.25l2,0.64c0.08,1.09,0.26,2.18,0.52,3.26l-1.68,1.24l1.14,3.05l2.09-0.16
				c0.49,0.97,1.07,1.9,1.74,2.8l-1.08,1.79l2.22,2.38l1.86-0.95c0.85,0.73,1.75,1.37,2.68,1.93L265,60.87l2.96,1.35l1.36-1.59
				c1.05,0.34,2.13,0.58,3.22,0.75l0.51,2.04l3.25,0.12l0.65-2c1.09-0.08,2.18-0.26,3.25-0.53l1.24,1.68l3.05-1.14l-0.17-2.09
				c0.97-0.49,1.91-1.07,2.8-1.74L288.93,58.78z M272.02,45.09c-1.75-1.87-1.65-4.8,0.22-6.55c1.87-1.75,4.8-1.65,6.55,0.22
				c1.75,1.87,1.65,4.8-0.23,6.55C276.7,47.06,273.77,46.96,272.02,45.09z"/>
		</g>
		<path class="st0" d="M219.19,110.71c-0.02,0-0.03,0-0.05,0l-12.4-0.42c-0.51-0.02-0.99-0.3-1.25-0.74l-3.34-5.62
			c-1.77-0.64-3.52-1.46-5.21-2.42l-5.37,0.98c-0.51,0.1-1.03-0.08-1.38-0.46l-8.47-9.07c-0.35-0.38-0.49-0.91-0.36-1.41l1.35-5.31
			c-0.82-1.68-1.51-3.47-2.05-5.35l-5.39-3.72c-0.42-0.29-0.67-0.78-0.65-1.3l0.42-12.4c0.02-0.51,0.3-0.99,0.74-1.25l5.63-3.34
			c0.67-1.83,1.48-3.57,2.41-5.19l-0.99-5.39c-0.09-0.51,0.08-1.03,0.46-1.38l9.07-8.47c0.38-0.35,0.91-0.49,1.41-0.36l5.32,1.36
			c1.72-0.84,3.51-1.53,5.33-2.06l3.72-5.39c0.29-0.42,0.77-0.69,1.3-0.65l12.4,0.43c0.51,0.02,0.99,0.3,1.25,0.74l3.35,5.63
			c1.78,0.65,3.51,1.46,5.17,2.41l5.41-0.99c0.51-0.09,1.03,0.08,1.38,0.46l8.47,9.07c0.35,0.38,0.49,0.91,0.36,1.41l-1.36,5.32
			c0.84,1.72,1.53,3.51,2.06,5.33l5.39,3.72c0.42,0.29,0.67,0.78,0.65,1.3l-0.42,12.4c-0.02,0.51-0.3,0.99-0.74,1.25l-5.63,3.35
			c-0.67,1.83-1.48,3.57-2.41,5.19l0.99,5.4c0.09,0.51-0.08,1.03-0.46,1.38l-9.07,8.47c-0.38,0.35-0.9,0.49-1.4,0.36l-5.3-1.35
			c-1.75,0.84-3.54,1.53-5.36,2.05l-3.72,5.38C220.15,110.47,219.69,110.71,219.19,110.71z M207.67,107.29l10.75,0.37l3.56-5.15
			c0.2-0.29,0.51-0.51,0.85-0.6c1.98-0.53,3.94-1.29,5.84-2.24c0,0,0.01,0,0.01,0c0.32-0.16,0.68-0.2,1.04-0.11l5.04,1.28l7.86-7.34
			l-0.94-5.14c-0.07-0.36,0-0.74,0.19-1.05c1.04-1.72,1.92-3.61,2.61-5.61c0.11-0.36,0.36-0.65,0.67-0.84l5.39-3.2l0.37-10.75
			l-5.16-3.56c-0.27-0.19-0.47-0.46-0.58-0.77c-0.01-0.04-0.02-0.08-0.03-0.12c-0.54-1.97-1.29-3.91-2.23-5.77
			c-0.17-0.33-0.21-0.7-0.12-1.06l1.29-5.07l-7.34-7.86l-5.15,0.94c-0.36,0.07-0.73,0-1.05-0.19c-1.79-1.07-3.68-1.95-5.62-2.62
			c-0.11-0.04-0.22-0.09-0.32-0.15c-0.21-0.13-0.38-0.31-0.51-0.52l-3.2-5.39l-10.75-0.37l-3.56,5.16
			c-0.21,0.31-0.53,0.52-0.89,0.61c-1.99,0.54-3.92,1.29-5.77,2.23c-0.33,0.17-0.7,0.21-1.06,0.12l-5.07-1.29l-7.86,7.34l0.94,5.14
			c0.06,0.32,0.01,0.66-0.13,0.95c-0.02,0.04-0.04,0.08-0.07,0.12c-1.04,1.73-1.92,3.62-2.62,5.63c-0.12,0.34-0.35,0.62-0.66,0.8
			l-5.39,3.2l-0.37,10.75l5.16,3.56c0.29,0.2,0.51,0.5,0.6,0.85c0.56,2.06,1.31,4.01,2.23,5.81c0.05,0.1,0.09,0.21,0.12,0.33
			c0.06,0.24,0.06,0.5,0,0.74l-1.29,5.05l7.34,7.86l5.11-0.93c0.36-0.07,0.73,0,1.04,0.19c1.82,1.08,3.72,1.96,5.65,2.62
			c0.35,0.11,0.65,0.35,0.84,0.67L207.67,107.29z M225.41,39.41L225.41,39.41L225.41,39.41z M214.31,93.71c-0.26,0-0.53,0-0.8-0.01
			c-12.49-0.43-22.3-10.94-21.87-23.43c0.43-12.49,10.95-22.3,23.43-21.88c12.49,0.43,22.3,10.94,21.87,23.43
			c-0.21,6.04-2.76,11.65-7.18,15.78C225.53,91.56,220.07,93.71,214.31,93.71z M214.28,51.41c-10.52,0-19.26,8.37-19.62,18.97
			c-0.37,10.82,8.13,19.93,18.96,20.3c5.24,0.18,10.25-1.7,14.08-5.28c3.83-3.58,6.04-8.44,6.22-13.68
			c0.37-10.82-8.13-19.93-18.96-20.3C214.73,51.41,214.51,51.41,214.28,51.41z"/>
		<g>
			<polygon class="st1" points="247.75,21.48 242.61,20.11 241.24,14.97 243.25,12.96 245.37,17.35 249.76,19.47 			"/>
			<path class="st1" d="M248.07,18.05c0.94-0.94,0.94-2.46,0-3.4c-0.94-0.94-2.45-0.93-3.39,0.01l2.55-3.83l3.43,1.73l0.75,3.6
				L248.07,18.05z"/>
			<path class="st2" d="M242.84,13.36l3.76-3.76l5.14,1.38l1.38,5.14l-3.76,3.76l-5.14-1.38L242.84,13.36z M249.67,16.44
				c0.94-0.94,0.94-2.46,0-3.4c-0.94-0.94-2.45-0.93-3.39,0.01c-0.94,0.94-0.94,2.45,0,3.38C247.22,17.37,248.74,17.38,249.67,16.44
				z"/>
		</g>
		<g>
			<polygon class="st1" points="37.83,158.5 40.59,157.76 41.33,155 40.25,153.93 39.11,156.28 36.75,157.42 			"/>
			<path class="st1" d="M37.66,156.66c-0.5-0.5-0.5-1.32,0-1.82c0.5-0.5,1.32-0.5,1.82,0l-1.37-2.06l-1.84,0.93l-0.4,1.93
				L37.66,156.66z"/>
			<path class="st2" d="M40.47,154.14l-2.02-2.02l-2.76,0.74l-0.74,2.76l2.02,2.02l2.76-0.74L40.47,154.14z M36.8,155.79
				c-0.5-0.5-0.5-1.32,0-1.82c0.5-0.5,1.32-0.5,1.82,0c0.5,0.5,0.5,1.31,0,1.81C38.11,156.29,37.3,156.3,36.8,155.79z"/>
		</g>
		<g>
			<path class="st2" d="M27.91,7.41L30.2,9.7c0.6,0.6,1.57,0.6,2.17,0l0,0c0.6-0.6,0.6-1.57,0-2.17l-2.29-2.29
				c-0.6-0.6-1.57-0.6-2.17,0l0,0C27.31,5.84,27.31,6.81,27.91,7.41z"/>
			<path class="st1" d="M26.3,1.71c1.76-0.63,3.67,0.19,4.27,1.85c0.59,1.65-0.35,3.51-2.12,4.14c-1.76,0.63-3.67-0.2-4.27-1.85
				C23.59,4.2,24.54,2.35,26.3,1.71z"/>
			
				<rect x="26.88" y="1.09" transform="matrix(-0.338 -0.9411 0.9411 -0.338 32.1963 32.0625)" class="st2" width="0.98" height="7.23"/>
		</g>
	</g>
	<g>
		<path class="st3" d="M35.32,32.45c-0.72-3.15-0.4-5.81,0.96-7.96c1.36-2.16,3.6-3.59,6.74-4.3c3.21-0.73,5.89-0.43,8.02,0.9
			c2.13,1.33,3.55,3.55,4.26,6.66c0.51,2.26,0.55,4.19,0.12,5.81c-0.43,1.62-1.27,2.99-2.53,4.12c-1.25,1.13-2.95,1.94-5.09,2.43
			c-2.18,0.5-4.06,0.56-5.64,0.19c-1.58-0.37-2.99-1.2-4.22-2.5C36.71,36.49,35.83,34.71,35.32,32.45z M41.3,31.13
			c0.44,1.95,1.12,3.27,2.04,3.95c0.92,0.69,2,0.89,3.25,0.6c1.28-0.29,2.18-0.93,2.69-1.93c0.51-0.99,0.52-2.57,0.03-4.73
			c-0.41-1.82-1.08-3.06-2.01-3.74c-0.92-0.67-2.01-0.86-3.27-0.58c-1.2,0.27-2.07,0.92-2.61,1.94
			C40.89,27.67,40.85,29.16,41.3,31.13z"/>
		<path class="st3" d="M58.14,30.09c-0.49-2.13-0.16-4.06,0.96-5.77c1.13-1.71,2.91-2.84,5.36-3.4c2.8-0.64,5.1-0.31,6.9,0.99
			c1.45,1.05,2.39,2.53,2.82,4.44c0.49,2.15,0.18,4.08-0.94,5.78c-1.11,1.7-2.93,2.84-5.45,3.41c-2.25,0.51-4.2,0.35-5.84-0.47
			C59.94,34.05,58.66,32.39,58.14,30.09z M63.51,28.86c0.28,1.25,0.75,2.11,1.39,2.59c0.64,0.48,1.34,0.64,2.11,0.46
			c0.77-0.18,1.34-0.61,1.7-1.32c0.36-0.7,0.4-1.7,0.1-3c-0.28-1.21-0.73-2.06-1.37-2.54c-0.64-0.48-1.32-0.63-2.06-0.47
			c-0.78,0.18-1.36,0.63-1.73,1.34C63.28,26.65,63.24,27.63,63.51,28.86z"/>
		<path class="st3" d="M79.61,38.12l-4.39-19.31l5.02-1.14l0.47,2.07c0.5-1.03,1-1.76,1.51-2.2c0.69-0.59,1.51-0.99,2.45-1.21
			c1.87-0.43,3.48-0.04,4.83,1.16c1.35,1.2,2.26,2.85,2.74,4.96c0.53,2.33,0.38,4.23-0.46,5.71c-0.84,1.48-2.11,2.41-3.81,2.8
			c-0.83,0.19-1.61,0.22-2.36,0.09c-0.74-0.13-1.45-0.4-2.11-0.84l1.52,6.68L79.61,38.12z M82.2,24.62
			c0.25,1.11,0.67,1.88,1.26,2.31c0.59,0.43,1.24,0.56,1.95,0.4c0.62-0.14,1.09-0.52,1.39-1.13c0.3-0.61,0.32-1.53,0.04-2.76
			c-0.26-1.13-0.67-1.91-1.23-2.35c-0.56-0.43-1.16-0.58-1.79-0.43c-0.68,0.16-1.19,0.55-1.53,1.19
			C81.96,22.5,81.92,23.42,82.2,24.62z"/>
		<path class="st3" d="M94.54,25.05l5.21-1.71c0.36,0.58,0.77,0.96,1.23,1.15c0.46,0.18,1.02,0.2,1.67,0.05
			c0.72-0.16,1.24-0.44,1.57-0.84c0.26-0.3,0.34-0.62,0.27-0.96c-0.09-0.39-0.36-0.64-0.81-0.76c-0.32-0.08-1.13-0.09-2.43-0.03
			c-1.94,0.1-3.3,0.09-4.08-0.02c-0.79-0.11-1.5-0.44-2.15-0.99c-0.65-0.54-1.06-1.24-1.26-2.08c-0.21-0.92-0.12-1.78,0.26-2.56
			c0.38-0.79,1.01-1.45,1.87-2c0.86-0.54,2.09-0.99,3.67-1.35c1.67-0.38,2.93-0.53,3.78-0.46c0.85,0.07,1.61,0.32,2.26,0.73
			c0.65,0.42,1.26,1.04,1.82,1.87l-4.97,1.66c-0.23-0.42-0.53-0.7-0.88-0.84c-0.49-0.19-1.03-0.21-1.62-0.07
			c-0.61,0.14-1.02,0.35-1.25,0.62c-0.23,0.28-0.31,0.57-0.24,0.88c0.08,0.34,0.31,0.56,0.7,0.66c0.39,0.1,1.19,0.08,2.4-0.05
			c1.83-0.2,3.22-0.22,4.17-0.06c0.95,0.16,1.73,0.52,2.35,1.09c0.61,0.56,1.01,1.24,1.19,2.04c0.18,0.81,0.12,1.65-0.2,2.52
			c-0.31,0.87-0.94,1.66-1.89,2.35c-0.95,0.69-2.32,1.24-4.13,1.65c-2.56,0.58-4.46,0.63-5.71,0.15
			C96.09,27.2,95.15,26.32,94.54,25.05z"/>
		<path class="st3" d="M112.02,7.34l5.88-0.03l0.03,4.51l-1.08,9.07l-3.63,0.02l-1.16-9.06L112.02,7.34z M112.31,22.29l5.48-0.03
			l0.03,4.85l-5.48,0.03L112.31,22.29z"/>
	</g>
	<g>
		<g>
			<path class="st3" d="M65.36,68.92c-0.04,0-0.09-0.01-0.13-0.02c-3.22-1.25-5.15-2.47-6.15-3.93c-0.73,0.15-1.54,0.05-2.31-0.32
				c-0.75-0.36-1.47-0.98-1.99-1.88c-0.48,0.37-1.08,0.47-1.74,0.27c-0.73-0.23-1.48-0.84-2.11-1.73c-0.4,0.29-0.81,0.33-1.11,0.31
				c-2.13-0.17-5.01-4.41-5.22-8.93c-0.01-0.2,0.14-0.36,0.34-0.37c0.19-0.02,0.36,0.14,0.37,0.34c0.2,4.29,2.94,8.11,4.56,8.24
				c0.26,0.03,0.48-0.06,0.67-0.2c-0.97-1.71-1.48-4.14-0.73-6.74c0.62-2.15,1.16-2.99,1.81-2.84c1.23,0.31,1.07,4.99,0.42,8.08
				c-0.15,0.7-0.36,1.2-0.61,1.56c0.56,0.83,1.23,1.4,1.82,1.58c0.52,0.16,0.91,0.03,1.2-0.25c-0.56-1.39-0.68-3.27,0.08-5.68
				c1.01-3.17,1.41-3.26,1.65-3.31c0.17-0.04,0.34,0.02,0.46,0.16c0.66,0.75-0.13,5.67-0.96,8.11c-0.11,0.32-0.24,0.59-0.4,0.83
				c0.44,0.87,1.1,1.46,1.78,1.79c0.55,0.26,1.11,0.36,1.63,0.31c-0.06-0.14-0.12-0.27-0.17-0.41c-0.57-1.54-0.29-3.31,0.85-5.43
				c0.76-1.4,1.37-2.06,1.94-2.06c0,0,0,0,0,0c0.17,0,0.48,0.06,0.71,0.47c0.62,1.15,0.17,4.95-1.06,6.84
				c-0.29,0.44-0.69,0.78-1.16,1c0.96,1.26,2.78,2.37,5.69,3.5c0.18,0.07,0.28,0.28,0.2,0.46C65.64,68.83,65.51,68.92,65.36,68.92z
				 M61.32,57.13c0,0-0.4,0-1.31,1.68c-1.04,1.92-1.3,3.5-0.81,4.84c0.06,0.16,0.13,0.32,0.21,0.48c0.38-0.16,0.71-0.43,0.95-0.79
				c1-1.53,1.48-4.68,1.11-5.91C61.4,57.17,61.32,57.13,61.32,57.13z M56.18,54.11c-0.18,0.35-0.5,1.06-0.96,2.53
				c-0.61,1.94-0.62,3.5-0.28,4.69c0.02-0.06,0.05-0.12,0.07-0.18C55.86,58.69,56.27,55.29,56.18,54.11z M51.47,51.86
				c-0.12,0.11-0.47,0.56-0.97,2.31c-0.66,2.3-0.25,4.4,0.52,5.9c0.15-0.31,0.25-0.67,0.32-1C52.08,55.55,51.87,52.37,51.47,51.86z"
				/>
			<path class="st3" d="M92.58,106.45c-1.09,0-2.24-0.25-3.27-0.85c-0.17-0.1-0.23-0.32-0.13-0.49c0.1-0.17,0.32-0.23,0.49-0.13
				c2.55,1.5,5.85,0.45,6.53-0.64c0.08-0.13,0.15-0.29,0.11-0.48c-1.01,0.11-2.25-0.16-3.67-1.05c-1.82-1.14-1.96-1.48-1.95-1.75
				c0.01-0.16,0.1-0.3,0.24-0.37c0.71-0.36,3.94,1.13,5.29,2.01c0.18,0.12,0.32,0.24,0.45,0.37c0.6-0.14,1.06-0.45,1.36-0.82
				c0.21-0.25,0.35-0.53,0.42-0.8c-0.05,0.01-0.1,0.01-0.14,0.02c-1.14,0.12-2.29-0.38-3.52-1.51c-0.84-0.78-1.17-1.31-1.06-1.74
				c0.03-0.13,0.15-0.38,0.51-0.47c0.99-0.25,3.43,0.8,4.43,1.89c0.23,0.25,0.38,0.54,0.46,0.85c0.93-0.44,1.92-1.42,3.09-3.06
				c0.12-0.16,0.34-0.2,0.5-0.08c0.16,0.11,0.2,0.34,0.08,0.5c-1.35,1.89-2.48,2.96-3.61,3.4c-0.04,0.5-0.25,1.02-0.62,1.46
				c-0.36,0.43-0.89,0.81-1.56,1.01c0.07,0.32,0.01,0.66-0.2,1C96.22,105.69,94.49,106.45,92.58,106.45z M91.95,101.48
				c0.24,0.18,0.59,0.41,1.08,0.72c0.97,0.61,1.84,0.89,2.58,0.95C94.42,102.41,92.86,101.76,91.95,101.48z M94.44,98.44
				c0.04,0.11,0.2,0.41,0.83,0.99c1.06,0.98,2.03,1.42,2.96,1.32c0.08-0.01,0.15-0.02,0.23-0.03c-0.05-0.22-0.15-0.42-0.31-0.59
				C97.15,99.02,94.93,98.32,94.44,98.44z"/>
			<path class="st4" d="M102.06,105.46l-11.16,2.03L80.78,52.21l-21.52,3.91l-35.07,62.28l3.77,20.55l44.99-8.17l3.08,16.81
				l21.52-3.91l-3.08-16.81l11.16-2.03L102.06,105.46z M45.61,115.72L64.2,83.09l5.19,28.3L45.61,115.72z"/>
		</g>
		<g>
			<path class="st4" d="M191.9,48.45c-0.42-3.82-1.18-7.21-2.29-10.18c-1.11-2.97-2.78-5.88-5-8.73c-2.23-2.85-5.26-5.32-9.09-7.42
				c-3.84-2.1-8.9-3.56-15.19-4.38c-13.1-1.71-23.3,0.62-30.63,6.97c-7.33,6.36-12.14,18.53-14.46,36.52
				c-0.94,7.32-1.18,14.08-0.7,20.29c0.47,6.21,1.61,11.21,3.42,14.99c2.47,5.31,5.97,9.55,10.49,12.72
				c4.52,3.17,10.71,5.27,18.58,6.29c14.03,1.83,24.43-0.86,31.19-8.08c6.76-7.21,11.25-19.41,13.46-36.58
				C192.66,63.21,192.74,55.74,191.9,48.45z"/>
			<path class="st3" d="M153.48,108.19c-1.72-0.06-3.55-0.21-5.45-0.46c-6.55-0.85-11.62-2.51-15.07-4.93
				c-3.4-2.39-5.98-5.52-7.87-9.6l-0.04-0.07c-1.38-2.88-2.28-6.98-2.67-12.19c-0.43-5.65-0.21-11.93,0.66-18.69
				c2.56-19.85,7.83-28.13,11.81-31.58c4.64-4.02,10.9-5.84,19.14-5.56c1.69,0.06,3.48,0.21,5.31,0.45
				c5.29,0.69,9.47,1.86,12.44,3.48c2.87,1.57,5.11,3.37,6.66,5.36c1.72,2.2,3.01,4.43,3.83,6.64c0.88,2.34,1.49,5.13,1.84,8.27
				c0.76,6.66,0.69,13.57-0.21,20.56c-1.99,15.42-5.82,26.25-11.4,32.2C168.33,106.48,162.12,108.49,153.48,108.19
				C153.48,108.19,153.48,108.19,153.48,108.19z"/>
			<g>
				<path class="st4" d="M167.49,48.66l0.09-2.71l-1.66-0.54c-0.07-0.93-0.22-1.84-0.44-2.72l1.41-1.04l-0.96-2.55l-1.75,0.14
					c-0.42-0.82-0.9-1.61-1.45-2.34l0.9-1.51l-1.86-1.98l-1.56,0.8c-0.7-0.6-1.44-1.14-2.24-1.62l0.25-1.73l-2.48-1.12l-1.13,1.33
					c-0.86-0.28-1.76-0.49-2.69-0.63l-0.42-1.7l-2.72-0.09l-0.54,1.67c-0.93,0.08-1.84,0.22-2.72,0.44l-1.05-1.4l-2.55,0.95
					l0.14,1.75c-0.82,0.42-1.61,0.91-2.34,1.46l-1.5-0.9l-1.99,1.85l0.8,1.57c-0.6,0.7-1.14,1.44-1.61,2.24l-1.73-0.26l-1.13,2.48
					l1.34,1.13c-0.28,0.86-0.5,1.77-0.63,2.69l-1.71,0.43l-0.09,2.71l1.67,0.54c0.07,0.93,0.22,1.84,0.44,2.72l-1.41,1.04l0.96,2.55
					l1.75-0.14c0.42,0.82,0.9,1.61,1.45,2.34l-0.9,1.51l1.86,1.98l1.56-0.8c0.7,0.6,1.44,1.14,2.24,1.62l-0.26,1.73l2.48,1.12
					l1.14-1.33c0.86,0.28,1.76,0.49,2.69,0.63l0.42,1.7l2.72,0.09l0.54-1.67c0.93-0.08,1.84-0.22,2.72-0.44l1.04,1.4l2.55-0.95
					l-0.13-1.75c0.82-0.42,1.6-0.91,2.34-1.46l1.5,0.9l1.99-1.85l-0.8-1.57c0.6-0.7,1.14-1.44,1.61-2.24l1.73,0.26l1.13-2.48
					l-1.34-1.13c0.28-0.86,0.5-1.76,0.63-2.69L167.49,48.66z M149.17,57.45c-5.94-0.2-10.59-5.18-10.39-11.12
					c0.2-5.95,5.18-10.6,11.12-10.39c5.94,0.2,10.59,5.18,10.39,11.13C160.09,53,155.11,57.65,149.17,57.45z"/>
			</g>
			<g>
				<path class="st5" d="M178.8,98.48l0.2-1.83l-1.1-0.45c0-0.63-0.06-1.25-0.16-1.86l1-0.64l-0.51-1.77l-1.19,0.01
					c-0.24-0.58-0.52-1.13-0.86-1.65l0.68-0.97l-1.15-1.43l-1.1,0.46c-0.44-0.43-0.91-0.84-1.43-1.2l0.27-1.16l-1.61-0.88L171,85.95
					c-0.58-0.25-1.18-0.43-1.77-0.56l-0.2-1.17l-1.83-0.2l-0.45,1.1c-0.63,0-1.24,0.07-1.86,0.17l-0.64-1.01l-1.77,0.52l0.01,1.19
					c-0.57,0.24-1.12,0.52-1.65,0.86l-0.97-0.69l-1.43,1.15l0.46,1.1c-0.43,0.44-0.84,0.91-1.2,1.43l-1.16-0.26l-0.88,1.61
					l0.84,0.83c-0.24,0.59-0.43,1.18-0.56,1.78l-1.17,0.19l-0.2,1.83l1.1,0.46c0,0.62,0.06,1.24,0.16,1.85l-1.01,0.64l0.52,1.77
					l1.19,0c0.24,0.57,0.52,1.12,0.86,1.65l-0.69,0.97l1.15,1.44l1.11-0.46c0.44,0.43,0.91,0.84,1.43,1.2l-0.27,1.16l1.61,0.88
					l0.84-0.84c0.58,0.24,1.18,0.42,1.77,0.55l0.2,1.17l1.83,0.2l0.45-1.1c0.62,0,1.24-0.07,1.86-0.17l0.64,1.01l1.76-0.52l0-1.19
					c0.57-0.24,1.12-0.52,1.65-0.86l0.97,0.69l1.44-1.15l-0.46-1.1c0.43-0.44,0.84-0.91,1.2-1.42l1.16,0.26l0.88-1.61l-0.84-0.83
					c0.24-0.59,0.42-1.18,0.56-1.77L178.8,98.48z M169.58,97.77c-0.85,1.55-2.8,2.12-4.34,1.27c-1.55-0.85-2.11-2.8-1.26-4.34
					c0.85-1.55,2.79-2.11,4.33-1.26C169.86,94.28,170.43,96.22,169.58,97.77z"/>
			</g>
			<path class="st6" d="M188.94,67.54l-2.13-1.47c0,0,0,0,0-0.01c-0.21-0.78-0.5-1.52-0.86-2.22l0.55-2.15l-3.1-3.32l-2.18,0.4
				c-0.67-0.4-1.4-0.74-2.16-1.01c0,0,0,0-0.01,0l-1.32-2.23l-4.53-0.16l-1.47,2.13c0,0-0.01,0-0.01,0
				c-0.77,0.21-1.52,0.5-2.22,0.86l-2.14-0.55l-3.31,3.1l0.4,2.17c0,0,0,0,0,0c-0.41,0.68-0.74,1.41-1.01,2.17l-2.23,1.32
				l-0.16,4.53l2.14,1.47c0.21,0.78,0.49,1.53,0.86,2.23c0,0,0,0,0,0l-0.55,2.14l3.1,3.31l2.17-0.4c0.68,0.4,1.41,0.75,2.18,1.01
				c0,0,0,0,0,0l1.32,2.23l4.53,0.16l1.47-2.13c0.78-0.21,1.53-0.5,2.24-0.86c0,0,0,0,0,0l2.13,0.54l3.31-3.1l-0.4-2.17
				c0.41-0.68,0.74-1.41,1.01-2.17c0,0,0,0,0,0l2.23-1.33L188.94,67.54z M174.81,74.43c-2.82-0.1-5.02-2.46-4.92-5.27
				c0.1-2.82,2.45-5.02,5.27-4.92c2.82,0.1,5.02,2.45,4.92,5.27C179.99,72.31,177.63,74.52,174.81,74.43z"/>
			<path class="st4" d="M204.51,31.37l0.37-0.9c0,0,0,0,0,0c0.27-0.14,0.52-0.3,0.75-0.49l0.83,0.03l0.97-1.4l-0.32-0.77
				c0.09-0.28,0.16-0.57,0.2-0.87c0,0,0,0,0,0l0.71-0.66l-0.3-1.68l-0.9-0.37c0,0,0,0,0,0c-0.14-0.27-0.3-0.52-0.49-0.75l0.03-0.83
				l-1.4-0.97l-0.77,0.32c0,0,0,0,0,0c-0.28-0.1-0.58-0.16-0.87-0.2l-0.66-0.71L201,21.4l-0.37,0.9c-0.27,0.14-0.52,0.3-0.75,0.49
				c0,0,0,0,0,0l-0.83-0.03l-0.97,1.4l0.32,0.76c-0.09,0.28-0.16,0.58-0.2,0.88c0,0,0,0,0,0l-0.71,0.66l0.3,1.68l0.9,0.37
				c0.14,0.27,0.3,0.52,0.49,0.75c0,0,0,0,0,0l-0.03,0.83l1.4,0.97l0.77-0.32c0.28,0.1,0.58,0.16,0.87,0.2c0,0,0,0,0,0l0.66,0.71
				L204.51,31.37z M200.87,26.72c-0.19-1.04,0.51-2.04,1.55-2.22c1.04-0.19,2.04,0.51,2.22,1.55s-0.51,2.04-1.55,2.22
				C202.05,28.46,201.06,27.76,200.87,26.72z"/>
			<path class="st4" d="M184.87,26.62l-0.55-0.46c0.95-1.13,2.3-2.55,4.3-3.6l0.33,0.63C186.82,24.31,185.45,25.92,184.87,26.62z"/>
			<path class="st4" d="M190.59,22.54l-0.28-0.66c2.71-1.16,5.54-1.61,8.4-1.35l-0.07,0.71C195.89,20.99,193.18,21.43,190.59,22.54z
				"/>
			<path class="st4" d="M189.23,27.5l-0.59-0.4c1.47-2.16,4.38-4.04,7.07-4.57l0.14,0.7C193.33,23.72,190.61,25.48,189.23,27.5z"/>
			<path class="st6" d="M141.73,96.39c-0.1,0-0.19-0.04-0.26-0.11l-1.5-1.55c-0.76-0.07-1.52-0.21-2.25-0.42l-2.34,1.03
				c-0.11,0.05-0.24,0.04-0.34-0.03l-3.92-2.6c-0.1-0.07-0.16-0.18-0.16-0.3l0.04-2.55c-0.48-0.59-0.9-1.24-1.26-1.92l-2.01-0.78
				c-0.11-0.04-0.2-0.14-0.22-0.26l-0.93-4.61c-0.02-0.12,0.01-0.24,0.1-0.33l1.55-1.5c0.07-0.76,0.21-1.52,0.42-2.25l-1.03-2.34
				c-0.05-0.11-0.04-0.24,0.03-0.34l2.6-3.92c0.07-0.1,0.16-0.16,0.3-0.16l2.55,0.04c0.6-0.48,1.24-0.9,1.92-1.26l0.78-2.01
				c0.04-0.11,0.14-0.2,0.26-0.22l4.61-0.93c0.12-0.02,0.24,0.01,0.33,0.1l1.5,1.55c0.76,0.07,1.52,0.21,2.26,0.42l2.34-1.03
				c0.11-0.05,0.24-0.04,0.34,0.03l3.92,2.6c0.1,0.07,0.16,0.18,0.16,0.3l-0.04,2.55c0.48,0.59,0.9,1.24,1.26,1.91l2.01,0.78
				c0.11,0.04,0.2,0.14,0.22,0.26l0.93,4.61c0.02,0.12-0.01,0.24-0.1,0.33l-1.55,1.5c-0.07,0.75-0.21,1.51-0.42,2.25l1.03,2.34
				c0.05,0.11,0.04,0.24-0.03,0.34l-2.6,3.92c-0.07,0.1-0.17,0.15-0.3,0.16l-2.55-0.04c-0.59,0.47-1.24,0.9-1.92,1.26l-0.78,2.01
				c-0.04,0.11-0.14,0.2-0.26,0.22l-4.61,0.93C141.77,96.39,141.75,96.39,141.73,96.39z M137.69,93.58c0.03,0,0.07,0,0.1,0.01
				c0.77,0.23,1.56,0.37,2.37,0.44c0.09,0.01,0.17,0.05,0.23,0.11l1.46,1.5l4.23-0.86l0.76-1.96c0.03-0.08,0.09-0.15,0.17-0.19
				c0.72-0.37,1.4-0.82,2.02-1.32c0.07-0.05,0.14-0.09,0.23-0.08l2.48,0.04l2.38-3.59l-1.01-2.28c-0.03-0.08-0.04-0.16-0.02-0.24
				c0.23-0.78,0.37-1.58,0.44-2.37c0.01-0.09,0.05-0.17,0.11-0.23l1.5-1.46l-0.86-4.22l-1.95-0.76c-0.08-0.03-0.15-0.09-0.19-0.17
				c-0.37-0.72-0.82-1.39-1.32-2.01c-0.05-0.07-0.08-0.15-0.08-0.23l0.04-2.49l-3.59-2.38l-2.27,1c-0.08,0.03-0.16,0.04-0.24,0.02
				c-0.78-0.23-1.58-0.37-2.38-0.44c-0.09-0.01-0.17-0.05-0.23-0.11l-1.46-1.5l-4.23,0.86l-0.76,1.95
				c-0.03,0.08-0.09,0.15-0.17,0.19c-0.71,0.37-1.39,0.82-2.02,1.33c-0.07,0.05-0.15,0.09-0.23,0.08l-2.48-0.04l-2.38,3.59l1,2.28
				c0.04,0.1,0.04,0.21-0.01,0.3c-0.2,0.72-0.35,1.51-0.42,2.31c-0.01,0.09-0.05,0.17-0.11,0.23l-1.5,1.46l0.86,4.22l1.95,0.76
				c0.09,0.03,0.16,0.1,0.2,0.18c0.37,0.71,0.82,1.38,1.32,2c0.05,0.07,0.08,0.15,0.08,0.23l-0.04,2.49l3.59,2.38l2.28-1.01
				C137.59,93.59,137.64,93.58,137.69,93.58z M141.21,91.26c-1.81,0-3.64-0.51-5.26-1.58c-2.12-1.41-3.57-3.56-4.08-6.05
				c-0.51-2.5-0.01-5.04,1.4-7.17c0,0,0,0,0,0c2.91-4.38,8.84-5.59,13.22-2.68c4.38,2.91,5.59,8.84,2.68,13.23
				C147.34,89.77,144.3,91.26,141.21,91.26z M133.87,76.85c-1.3,1.96-1.76,4.32-1.29,6.63c0.47,2.31,1.81,4.3,3.77,5.6
				c4.06,2.69,9.54,1.58,12.23-2.48c2.69-4.05,1.58-9.54-2.48-12.23C142.05,71.68,136.56,72.8,133.87,76.85L133.87,76.85z"/>
		</g>
		<g>
			<path class="st4" d="M278.1,111.92l-11.24-1.52l7.43-55.7l-21.68-2.93l-52.59,48.41l-2.76,20.71l45.31,6.12l-2.26,16.94
				l21.68,2.93l2.26-16.94l11.24,1.52L278.1,111.92z M221.24,104.25l27.75-25.29l-3.81,28.52L221.24,104.25z"/>
			<path class="st3" d="M255.41,146.35c-0.02,0-0.04,0-0.06-0.01c-0.19-0.04-0.32-0.22-0.29-0.42l16.7-91.59
				c0.04-0.19,0.22-0.32,0.42-0.29c0.19,0.04,0.32,0.22,0.29,0.42l-16.7,91.59C255.73,146.23,255.58,146.35,255.41,146.35z"/>
			<g>
				<path class="st3" d="M270.22,55.88c-0.01,0.32-0.28,0.58-0.61,0.57c-0.32-0.01-0.58-0.28-0.57-0.61
					c0.01-0.32,0.28-0.58,0.61-0.57C269.98,55.29,270.24,55.56,270.22,55.88z"/>
				<path class="st3" d="M267.84,68.27c-0.01,0.32-0.28,0.58-0.61,0.57c-0.32-0.01-0.58-0.28-0.57-0.61
					c0.01-0.32,0.28-0.58,0.61-0.57C267.6,67.67,267.85,67.94,267.84,68.27z"/>
				<path class="st3" d="M265.45,80.65c-0.01,0.32-0.28,0.58-0.61,0.57c-0.32-0.01-0.58-0.28-0.57-0.61s0.28-0.58,0.61-0.57
					C265.21,80.06,265.46,80.33,265.45,80.65z"/>
				<path class="st3" d="M260.76,93.55c-0.01,0.32-0.28,0.58-0.61,0.57c-0.32-0.01-0.58-0.28-0.57-0.61
					c0.01-0.32,0.28-0.58,0.61-0.57C260.52,92.95,260.77,93.22,260.76,93.55z"/>
				<path class="st3" d="M260.68,105.43c-0.01,0.32-0.28,0.58-0.61,0.57c-0.32-0.01-0.58-0.28-0.57-0.61
					c0.01-0.32,0.28-0.58,0.61-0.57C260.44,104.83,260.69,105.1,260.68,105.43z"/>
				<path class="st3" d="M258.3,117.81c-0.01,0.32-0.28,0.58-0.61,0.57c-0.32-0.01-0.58-0.28-0.57-0.61
					c0.01-0.32,0.28-0.58,0.61-0.57C258.05,117.22,258.31,117.49,258.3,117.81z"/>
				<path class="st3" d="M255.91,130.2c-0.01,0.32-0.28,0.58-0.61,0.57c-0.32-0.01-0.58-0.28-0.57-0.61s0.28-0.58,0.61-0.57
					C255.67,129.6,255.92,129.87,255.91,130.2z"/>
				<path class="st3" d="M253.52,142.58c-0.01,0.32-0.28,0.58-0.61,0.57c-0.32-0.01-0.58-0.28-0.57-0.61
					c0.01-0.32,0.28-0.58,0.61-0.57S253.53,142.26,253.52,142.58z"/>
			</g>
			<path class="st3" d="M260.17,93.89c-0.16,0-0.31-0.11-0.35-0.28c-0.04-0.19,0.08-0.38,0.27-0.43l1.78-0.38
				c0.2-0.04,0.38,0.08,0.43,0.28c0.04,0.19-0.08,0.38-0.27,0.43l-1.78,0.38C260.22,93.88,260.2,93.89,260.17,93.89z"/>
			<g>
				<path class="st3" d="M266.11,87.29c0,0-1.6,4.17-2.14,6.7c-0.54,2.53-0.57,8.18-0.57,8.18"/>
				<path class="st3" d="M263.4,102.53C263.4,102.53,263.4,102.53,263.4,102.53c-0.2,0-0.36-0.16-0.36-0.36
					c0-0.23,0.04-5.72,0.58-8.25c0.54-2.53,2.09-6.58,2.16-6.76c0.07-0.18,0.28-0.28,0.46-0.21c0.18,0.07,0.28,0.28,0.21,0.46
					c-0.02,0.04-1.6,4.18-2.13,6.65c-0.53,2.46-0.56,8.05-0.56,8.11C263.75,102.37,263.59,102.53,263.4,102.53z"/>
			</g>
		</g>
	</g>
</g>
</svg>
