<?xml version="1.0" encoding="utf-8"?>
<!-- Generator: Adobe Illustrator 16.0.0, SVG Export Plug-In . SVG Version: 6.00 Build 0)  -->
<!DOCTYPE svg PUBLIC "-//W3C//DTD SVG 1.1//EN" "http://www.w3.org/Graphics/SVG/1.1/DTD/svg11.dtd">
<svg version="1.1" xmlns="http://www.w3.org/2000/svg" xmlns:xlink="http://www.w3.org/1999/xlink" x="0px" y="0px" width="500px"
	 height="500px" viewBox="0 0 500 500" enable-background="new 0 0 500 500" xml:space="preserve">
<g id="BACKGROUND">
</g>
<g id="OBJECTS">
	<g>
		<g>
			<ellipse opacity="0.2" fill="#5788B5" cx="96.998" cy="458.745" rx="48.251" ry="7.311"/>
			<ellipse opacity="0.2" fill="#5788B5" cx="245.467" cy="458.745" rx="48.251" ry="7.311"/>
			<ellipse opacity="0.2" fill="#5788B5" cx="404.54" cy="458.745" rx="48.251" ry="7.311"/>
		</g>
		<g>
			<g>
				<g>
					<g>
						<path fill="#5788B5" d="M138.334,128.127c0,0-10.153-16.812-29.794-11.152c-19.641,5.66-8.322,25.134-18.642,29.628
							c-10.32,4.494-30.294,14.148-25.467,35.288c4.827,21.139,47.271,20.64,50.101,10.819
							C117.361,182.889,138.334,128.127,138.334,128.127z"/>
						<g>
							<path fill="#5788B5" d="M138.278,128.932c0,0-0.233-0.407-0.748-1.117c-0.503-0.717-1.299-1.73-2.412-2.926
								c-1.103-1.205-2.588-2.529-4.414-3.872c-1.848-1.315-4.118-2.525-6.732-3.458c-2.623-0.935-5.649-1.312-8.814-1.237
								c-0.792,0.063-1.594,0.125-2.406,0.19c-0.808,0.095-1.61,0.309-2.43,0.459c-1.639,0.271-3.291,0.822-4.862,1.463
								c-3.163,1.331-6.024,3.719-7.55,6.996c-1.588,3.248-2.026,6.984-2.579,10.683c-0.301,1.851-0.628,3.737-1.354,5.531
								c-0.698,1.788-2.001,3.457-3.762,4.325c-0.888,0.448-1.722,0.724-2.566,1.087c-0.841,0.345-1.673,0.702-2.496,1.063
								c-1.643,0.728-3.244,1.495-4.783,2.312c-3.072,1.644-5.919,3.468-8.372,5.506c-1.22,1.025-2.34,2.099-3.352,3.205
								c-0.995,1.121-1.875,2.272-2.633,3.436c-1.487,2.347-2.461,4.734-3.013,6.929c-0.555,2.198-0.683,4.19-0.688,5.819
								c0.001,0.816,0.025,1.545,0.095,2.177c0.046,0.634,0.098,1.171,0.175,1.604c0.129,0.867,0.198,1.33,0.198,1.33
								s-0.083-0.46-0.238-1.324c-0.09-0.431-0.158-0.967-0.223-1.601c-0.089-0.631-0.134-1.362-0.16-2.183
								c-0.043-1.637,0.025-3.65,0.522-5.896c0.489-2.241,1.41-4.709,2.9-7.125c0.754-1.201,1.633-2.391,2.628-3.551
								c1.013-1.144,2.135-2.258,3.36-3.322c2.461-2.116,5.319-4.026,8.429-5.695c1.554-0.836,3.168-1.621,4.822-2.364
								c0.828-0.368,1.664-0.732,2.51-1.084c0.831-0.361,1.738-0.678,2.493-1.07c1.563-0.788,2.691-2.234,3.341-3.905
								c0.668-1.671,0.981-3.506,1.271-5.341c0.572-3.664,1.027-7.501,2.715-10.916c0.822-1.702,1.984-3.232,3.373-4.464
								c1.39-1.233,2.977-2.188,4.625-2.879c0.83-0.322,1.677-0.672,2.501-0.885c0.422-0.114,0.807-0.251,1.254-0.345
								c0.424-0.079,0.847-0.158,1.267-0.236c0.842-0.141,1.666-0.344,2.495-0.428c0.833-0.052,1.657-0.104,2.47-0.154
								c3.247-0.024,6.339,0.417,9.002,1.415c2.66,0.985,4.93,2.289,6.757,3.676c1.807,1.412,3.261,2.789,4.333,4.033
								c1.082,1.234,1.849,2.272,2.332,3.005C138.057,128.519,138.278,128.932,138.278,128.932z"/>
						</g>
					</g>
					<g>
						<g>
							<path fill="#FF8B45" d="M98.216,188.515l9.731-0.47c0,0,0.443-8.901,2.493-20.566l16.631-1.351c0,0-2.78,18.245,0.144,23.363
								s-21.445,40.697-31.437,29.243C85.788,207.28,98.216,188.515,98.216,188.515z"/>
							<path fill="#E27037" d="M126.023,176.299c0.318-5.368,1.048-10.171,1.048-10.171l-16.631,1.351
								c-1.624,9.243-2.237,16.73-2.423,19.45C114.65,184.529,120.874,180.856,126.023,176.299z"/>
						</g>
						<path fill="#FF8B45" d="M128.604,130.825c0,0-18.8-9.24-28.15,11.576c-9.351,20.815-5.53,36.636,8.767,37.602
							c8.525,0.576,16.575-3.902,22.991-15.263C138.627,153.379,146.818,138.159,128.604,130.825z"/>
					</g>
					<g>
						<path fill="#72A0D1" d="M155.756,157.732c3.668-13.853-3.365-31.301-19.051-34.822c0,0-7.037-2.53-11.07,6.741
							c-2.708,6.225-5.285,17.258,0.114,26.071l-0.231-0.132c0,0,4.827,10.153-0.666,13.316
							c-9.042,5.206-12.483,15.979-0.666,24.135c11.818,8.156,28.296-22.138,28.296-22.138l-6.456-3.666
							C149.568,167.038,153.806,165.1,155.756,157.732z"/>
						<g>
							<path fill="#72A0D1" d="M136.04,124.908c0,0-0.313-0.108-0.923-0.194c-0.607-0.083-1.519-0.136-2.642,0.067
								c-1.117,0.2-2.441,0.721-3.655,1.73c-1.216,1.002-2.303,2.456-3.14,4.209c-0.827,1.757-1.526,3.783-1.986,5.965
								c-0.462,2.187-0.653,4.547-0.586,6.981c0.074,2.436,0.44,4.942,0.995,7.452c0.547,2.515,1.283,5.032,1.936,7.595
								c0.609,2.556,1.229,5.224,0.823,7.93c-0.208,1.339-0.757,2.641-1.599,3.684c-0.418,0.531-0.906,0.972-1.345,1.402
								c-0.445,0.437-0.875,0.87-1.295,1.316c-1.669,1.78-3.151,3.631-4.23,5.573c-1.079,1.935-1.705,3.992-1.675,5.917
								c0.008,1.93,0.66,3.639,1.453,4.998c0.821,1.354,1.768,2.389,2.583,3.19c0.834,0.786,1.527,1.368,2.016,1.742
								c0.49,0.375,0.751,0.575,0.751,0.575s-0.271-0.186-0.781-0.534c-0.508-0.351-1.24-0.887-2.109-1.651
								c-0.854-0.776-1.854-1.782-2.753-3.14c-0.427-0.691-0.846-1.456-1.155-2.324c-0.296-0.871-0.489-1.831-0.523-2.844
								c-0.082-2.033,0.529-4.214,1.599-6.247c1.063-2.046,2.55-3.978,4.247-5.796c0.421-0.455,0.864-0.909,1.31-1.353
								c0.451-0.448,0.9-0.862,1.263-1.333c0.746-0.942,1.22-2.088,1.402-3.308c0.363-2.462-0.249-5.054-0.856-7.58
								c-0.626-2.541-1.349-5.083-1.884-7.635c-0.543-2.549-0.899-5.112-0.956-7.608c-0.067-2.497,0.21-4.917,0.729-7.144
								c0.526-2.23,1.277-4.258,2.171-6.05c0.894-1.79,2.085-3.258,3.387-4.246c1.299-0.998,2.686-1.48,3.834-1.641
								c1.155-0.169,2.073-0.053,2.678,0.058C135.732,124.784,136.04,124.908,136.04,124.908z"/>
						</g>
					</g>
				</g>
				<g>
					<g>
						<path fill="#D65730" d="M104.93,161.994c-1.391-1.325-2.68-2.73-3.93-4.166l-0.518-0.595l0.869-0.219
							c0.149-0.038,0.373-0.113,0.562-0.181c0.196-0.078,0.393-0.156,0.581-0.258c0.38-0.192,0.746-0.422,1.102-0.666
							c0.35-0.255,0.68-0.537,1.006-0.829c0.171-0.137,0.313-0.308,0.469-0.462c0.158-0.153,0.302-0.319,0.447-0.488
							c0.304-0.324,0.575-0.679,0.842-1.042c0.293-0.344,0.512-0.744,0.788-1.11c0.25-0.383,0.481-0.78,0.743-1.168
							c0.224-0.406,0.471-0.807,0.732-1.209c-0.077,0.468-0.168,0.938-0.282,1.402c-0.136,0.457-0.291,0.91-0.46,1.361
							c-0.202,0.435-0.384,0.885-0.631,1.303c-0.24,0.422-0.504,0.832-0.803,1.223c-0.136,0.205-0.302,0.387-0.471,0.568
							c-0.17,0.18-0.323,0.374-0.512,0.537c-0.351,0.353-0.748,0.658-1.162,0.94c-0.421,0.272-0.856,0.532-1.335,0.707
							c-0.233,0.098-0.479,0.172-0.726,0.242c-0.257,0.068-0.486,0.114-0.801,0.134l0.351-0.813
							C102.896,158.754,103.963,160.334,104.93,161.994z"/>
					</g>
					<g>
						<path fill="#091B2E" d="M126.685,151.532c0,0-0.188-0.186-0.518-0.484c-0.322-0.305-0.795-0.718-1.348-1.189
							c-0.285-0.229-0.586-0.476-0.913-0.718c-0.314-0.26-0.688-0.469-1.035-0.729c-0.365-0.232-0.754-0.45-1.146-0.657
							c-0.404-0.186-0.794-0.412-1.222-0.54c-0.408-0.188-0.84-0.287-1.264-0.4c-0.418-0.143-0.855-0.162-1.273-0.245
							c-0.419-0.076-0.837-0.046-1.238-0.089c-0.402-0.046-0.782,0.02-1.144,0.02c-0.357,0.03-0.706-0.003-0.998,0.057
							c-0.295,0.046-0.563,0.068-0.785,0.091c-0.446,0.04-0.716,0.049-0.716,0.049s0.199-0.162,0.576-0.421
							c0.189-0.126,0.42-0.287,0.698-0.449c0.268-0.188,0.61-0.303,0.981-0.448c0.375-0.132,0.775-0.335,1.238-0.383
							c0.457-0.063,0.944-0.216,1.458-0.186c0.51,0.032,1.06-0.042,1.589,0.104c0.54,0.09,1.082,0.218,1.594,0.434
							c0.528,0.179,1.007,0.455,1.473,0.728c0.463,0.277,0.866,0.626,1.254,0.947c0.75,0.681,1.335,1.416,1.743,2.095
							c0.416,0.673,0.669,1.281,0.812,1.718C126.647,151.27,126.685,151.532,126.685,151.532z"/>
					</g>
					<g>
						<path fill="#091B2E" d="M109.753,145.29c0,0-0.643-0.321-1.449-0.823c-0.393-0.241-0.851-0.521-1.342-0.823
							c-0.48-0.274-0.966-0.591-1.458-0.813c-0.238-0.146-0.486-0.213-0.721-0.327c-0.238-0.091-0.469-0.151-0.699-0.229
							c-0.224-0.015-0.457-0.116-0.674-0.107c-0.214,0.014-0.451-0.061-0.653-0.014c-0.204,0.035-0.411,0.048-0.604,0.063
							c-0.174,0.053-0.341,0.092-0.482,0.126c-0.285,0.067-0.472,0.101-0.472,0.101s0.069-0.156,0.235-0.421
							c0.085-0.129,0.188-0.298,0.333-0.468c0.161-0.146,0.354-0.314,0.588-0.478c0.222-0.189,0.525-0.271,0.839-0.401
							c0.318-0.126,0.675-0.126,1.047-0.17c0.357,0.017,0.748,0.042,1.108,0.14c0.355,0.104,0.725,0.217,1.043,0.392
							c1.324,0.665,2.25,1.738,2.74,2.639C109.649,144.567,109.753,145.29,109.753,145.29z"/>
					</g>
					<g>
						<path fill="#001014" d="M120.505,158.282c0,0-0.003-0.219-0.009-0.603c-0.005-0.375-0.023-0.914-0.089-1.532
							c-0.07-0.616-0.206-1.323-0.502-1.944c-0.304-0.617-0.779-1.082-1.452-1.245l-0.123-0.039c0,0-0.086-0.024-0.015-0.011
							l-0.08-0.012l-0.318-0.048c-0.155,0.011-0.265-0.011-0.436,0.03c-0.312,0.057-0.63,0.159-0.915,0.354
							c-0.585,0.358-1.063,0.907-1.46,1.381c-0.39,0.487-0.698,0.929-0.916,1.24c-0.221,0.313-0.348,0.492-0.348,0.492
							s0.028-0.22,0.117-0.595c0.091-0.375,0.236-0.911,0.525-1.521c0.292-0.604,0.695-1.324,1.429-1.908
							c0.358-0.289,0.814-0.552,1.334-0.649c0.241-0.067,0.563-0.067,0.834-0.064l0.319,0.037l0.08,0.009
							c0.125,0.02,0.088,0.02,0.141,0.031l0.187,0.052c0.496,0.132,0.976,0.422,1.351,0.784c0.395,0.358,0.612,0.83,0.779,1.258
							c0.168,0.437,0.21,0.872,0.242,1.27c0.025,0.4-0.003,0.771-0.046,1.107c-0.085,0.673-0.254,1.203-0.391,1.568
							C120.607,158.087,120.505,158.282,120.505,158.282z"/>
					</g>
					<g>
						<path fill="#001014" d="M104.64,153.344c0,0,0.002-0.208,0.005-0.571c0.006-0.356,0.002-0.869-0.026-1.462
							c-0.042-0.589-0.097-1.283-0.32-1.914c-0.095-0.323-0.27-0.599-0.456-0.823c-0.189-0.228-0.43-0.379-0.73-0.445l-0.107-0.035
							c0.014,0.001-0.069-0.015,0.024,0l-0.038-0.004l-0.076-0.009c-0.091-0.007-0.226-0.037-0.28-0.025
							c-0.056,0.009-0.111,0.013-0.168,0.012l-0.211,0.053c-0.277,0.096-0.566,0.248-0.824,0.458
							c-0.514,0.433-0.944,0.974-1.296,1.454c-0.347,0.485-0.628,0.913-0.827,1.214c-0.203,0.301-0.318,0.474-0.318,0.474
							s0.025-0.208,0.104-0.564c0.079-0.356,0.208-0.864,0.453-1.449c0.241-0.585,0.591-1.261,1.186-1.886
							c0.311-0.298,0.682-0.605,1.165-0.772l0.372-0.104c0.144-0.018,0.291-0.03,0.438-0.038c0.148-0.007,0.215,0.014,0.328,0.019
							l0.076,0.007l0.038,0.003c0.119,0.017,0.06,0.012,0.098,0.019l0.186,0.051c0.493,0.128,0.971,0.447,1.278,0.849
							c0.32,0.395,0.489,0.854,0.578,1.271c0.19,0.848,0.104,1.607-0.003,2.232c-0.112,0.626-0.278,1.123-0.415,1.465
							C104.737,153.159,104.64,153.344,104.64,153.344z"/>
					</g>
					<g>
						<path fill="#D65730" d="M99.299,163.433c0,0,0.808,0.537,2.039,1.201c0.308,0.167,0.643,0.338,1,0.512
							c0.349,0.188,0.744,0.329,1.127,0.518c0.796,0.314,1.641,0.653,2.521,0.853l0.652,0.176l0.66,0.111
							c0.436,0.086,0.869,0.133,1.292,0.167c0.422,0.056,0.832,0.045,1.225,0.052c0.394,0.018,0.766,0,1.11-0.035
							c0.343-0.037,0.671-0.028,0.952-0.071c0.284-0.042,0.532-0.08,0.736-0.111c0.414-0.054,0.661-0.076,0.661-0.076
							s-0.206,0.121-0.582,0.317c-0.189,0.096-0.419,0.217-0.691,0.341c-0.271,0.125-0.595,0.21-0.947,0.319
							c-0.177,0.053-0.362,0.108-0.554,0.166c-0.194,0.044-0.399,0.063-0.609,0.097c-0.42,0.059-0.867,0.146-1.333,0.121
							c-0.465-0.002-0.952,0.021-1.435-0.071l-0.733-0.101l-0.725-0.171c-0.486-0.111-0.945-0.304-1.404-0.465
							c-0.455-0.173-0.876-0.406-1.287-0.614c-0.802-0.456-1.507-0.948-2.052-1.437C99.808,164.278,99.299,163.433,99.299,163.433z"
							/>
					</g>
				</g>
			</g>
			<g>
				<g>
					<g>
						<path fill="#E27037" d="M110.647,332.074c0,0,25.409,2.923,25.708,4.534c0.298,1.611-14.443,26.537-17.729,26.537
							s6.573-22.016,6.573-22.016L110.647,332.074z"/>
						<path fill="#E27037" d="M99.446,255.375c0,0-65.899,36.852-74.137,76.738c-5.158,24.976,99.717,11.706,99.717,11.706
							l3.902-9.104c0,0-66.333-13.007-71.536-9.538c0,0,57.662-13.44,62.431-38.152C124.592,262.312,99.446,255.375,99.446,255.375z
							"/>
					</g>
					<g>
						<path fill="#EFEEE6" d="M133.725,335.557c-2.266,4.077-9.551,17.014-11.466,18.291c-1.277,0.852-1.599-0.344-1.635-1.558
							c-2.027,5.452-3.625,10.854-1.998,10.854c3.286,0,18.027-24.926,17.729-26.537
							C136.296,336.296,135.294,335.936,133.725,335.557z"/>
						<path opacity="0.2" fill="#091B2E" d="M133.725,335.557c-2.266,4.077-9.551,17.014-11.466,18.291
							c-1.277,0.852-1.599-0.344-1.635-1.558c-2.027,5.452-3.625,10.854-1.998,10.854c3.286,0,18.027-24.926,17.729-26.537
							C136.296,336.296,135.294,335.936,133.725,335.557z"/>
						<g>
							<path fill="#091B2E" d="M135.736,336.164c-1.671,4.473-14.504,25.789-17.544,25.789c-0.087,0-0.161-0.023-0.23-0.054
								c-0.003,0.78,0.191,1.246,0.664,1.246c3.286,0,18.027-24.926,17.729-26.537C136.329,336.469,136.105,336.32,135.736,336.164z
								"/>
						</g>
					</g>
				</g>
				<g>
					<g>
						<path fill="#FF8B45" d="M123.725,256.676c0,0,27.313,23.845,15.174,40.32c-12.139,16.475-64.599,93.213-80.207,78.473
							c-15.608-14.741,33.383-93.647,33.383-93.647L123.725,256.676z"/>
						<path fill="#FF8B45" d="M82.538,352.057c0,0,1.714-10.727,82.93,4.654l1.613,9.22c0,0-42.488,6.503-66.333,13.006
							c-21.299,5.81-47.035,6.45-45.089-13.006C56.958,352.924,82.538,352.057,82.538,352.057z"/>
						<path fill="#FF8B45" d="M146.702,353.943c0,0,25.408,2.923,25.707,4.534s-14.442,26.537-17.729,26.537
							c-3.287,0,6.572-22.016,6.572-22.016L146.702,353.943z"/>
					</g>
					<g>
						<path fill="#EFEEE6" d="M169.779,357.426c-2.266,4.077-9.55,17.014-11.466,18.291c-1.277,0.852-1.599-0.344-1.636-1.558
							c-2.027,5.452-3.625,10.854-1.997,10.854c3.286,0,18.027-24.926,17.729-26.537
							C172.351,358.166,171.348,357.805,169.779,357.426z"/>
						<g>
							<path fill="#091B2E" d="M171.791,358.033c-1.671,4.473-14.504,25.789-17.544,25.789c-0.087,0-0.161-0.023-0.23-0.054
								c-0.003,0.78,0.191,1.246,0.664,1.246c3.286,0,18.027-24.926,17.729-26.537C172.383,358.338,172.16,358.189,171.791,358.033z
								"/>
						</g>
					</g>
				</g>
				<g>
					<g>
						<path fill="#72A0D1" d="M78.636,303.066c0,0,29.048,1.301,42.921,19.076c0,0,24.279-22.544,24.279-32.949
							s-23.412-40.321-23.412-40.321l-42.055-2.601l-3.035,19.51l-21.244,19.51l25.146,12.14
							C81.237,297.43,77.575,301.564,78.636,303.066z"/>
						<g>
							<g>
								<path fill="none" stroke="#5280AA" stroke-width="0.9229" stroke-miterlimit="10" d="M115.938,251.193
									c0,0,0.367,0.563,0.978,1.563"/>
								<path fill="none" stroke="#5280AA" stroke-width="0.9229" stroke-miterlimit="10" stroke-dasharray="3.8554,3.8554" d="
									M118.876,256.072c4.686,8.203,12.975,24.701,9.367,33.268c-3.433,8.155-9.561,16.31-12.954,20.496"/>
								<path fill="none" stroke="#5280AA" stroke-width="0.9229" stroke-miterlimit="10" d="M114.063,311.323
									c-0.754,0.897-1.202,1.397-1.202,1.397"/>
							</g>
						</g>
					</g>
					<g>
						<path fill="#5280AA" d="M125.027,252.292c-1.59-2.125-2.603-3.419-2.603-3.419l-42.055-2.601l-0.915,5.879
							C94.291,254.833,110.114,252.508,125.027,252.292z"/>
						<g>
							<path fill="#5280AA" d="M87.328,283.495c-6.46-6.46-9.993-17.714-9.993-17.714l-21.244,19.51l25.096,12.115
								C85.361,289.05,87.328,283.495,87.328,283.495z"/>
						</g>
					</g>
				</g>
			</g>
			<g>
				<g>
					<g>
						<path fill="#FF8B45" d="M89.734,206.085c0,0-52.644-7.712-56.881-14.948c-4.238-7.236,28.617-110.453,18.696-71.223
							c0,0,10.145-25.507,1.81,1.632c0,0,11.291-27.36,2.383,0.706c0,0,8.292-21.271,2.207,2.647c0,0,15.221-11.343-1.412,4.766
							c0,0-5.462,49.422-4.006,49.554c1.456,0.132,44.172,9.391,44.172,9.391L89.734,206.085z"/>
						<path fill="#E27037" d="M69.872,182.83c-1.127,3.991-2.149,8.012-2.821,12.105c-0.317,1.93-0.729,4.443-0.897,7.051
							c12.442,2.467,23.581,4.099,23.581,4.099l6.969-17.475C96.703,188.61,82.25,185.477,69.872,182.83z"/>
					</g>
					<path fill="#941F14" d="M105.283,187.947l-29.568-5.199c0,0-6.173,13.647-1.949,23.395l15.271,1.625L105.283,187.947z"/>
				</g>
				<g>
					<g>
						<path fill="#FF8B45" d="M180.702,69.09c0,0,0.012-27.45-2.285,0.847c0,0-0.368-29.596-2.475-0.226
							c0,0,0.166-22.829-3.03,1.643c0,0-9.945-16.17-0.452,4.95c0,0-13.168,47.782-15.513,51.531L132.09,186.81
							c0,0-10.723,29.73,5.361,19.008c16.083-10.722,36.106-67.469,36.106-67.469s-2.319-2.133,0,0
							C179.632,118.441,185.512,32.653,180.702,69.09z"/>
						<path fill="#E27037" d="M151.734,172.833c-2.955-3.395-6.39-6.25-10.02-8.861l-9.625,22.837c0,0-10.723,29.73,5.361,19.008
							c6.066-4.044,12.692-14.636,18.594-26.261C154.95,177.165,153.537,174.904,151.734,172.833z"/>
					</g>
					<path fill="#A82F29" d="M127.703,185.997c0,0,5.524-8.773,8.123-10.723c0,0,13.972,1.3,17.546,12.347l-8.773,15.271
						L127.703,185.997z"/>
				</g>
				<g>
					<path fill="#941F14" d="M74.09,244.159c0,0,5.849,10.073,52.638,4.549c0,0,22.745-49.064,19.17-59.461
						c-3.574-10.398-18.196-3.25-18.196-3.25s-14.947,21.77-25.019,20.47c-10.073-1.299,2.599-18.521,2.599-18.521l-13.647-1.625
						c0,0-24.369,22.745-13.647,42.241L74.09,244.159z"/>
					<path fill="#A82F29" d="M81.823,223.398c5.647,1.584,11.392,2.13,17.198,1.096c9.6-1.708,19.152-4.62,27.688-9.401
						c6.566-3.678,12.522-8.134,17.961-13.152c1.448-5.619,2.074-10.238,1.229-12.695c-3.574-10.398-18.196-3.25-18.196-3.25
						s-14.947,21.77-25.019,20.47c-10.073-1.3,2.599-18.521,2.599-18.521l-13.647-1.625c0,0-17.805,16.636-16.26,33.647
						C77.443,221.364,79.51,222.75,81.823,223.398z"/>
				</g>
			</g>
		</g>
		<g>
			<g>
				<g>
					<g>
						<g>
							<path fill="#941F14" d="M179.74,316.531c-4.783-1.238-9.982-2.522-15.637-3.854l-4.729,7.04c0,0,9.562,6.611,21.851,14.846
								C180.902,328.538,180.453,322.523,179.74,316.531z"/>
							<path fill="#941F14" d="M180.659,317.292c0,0-22.113-6.933-22.953-5.708c-0.84,1.224,2.077,24.451,4.798,25.66
								c2.721,1.21,2.774-17.811,2.774-17.811L180.659,317.292z"/>
						</g>
						<path fill="#72A0D1" d="M160.27,311.682c0.375,4.21,1.646,17.602,2.761,19.364c0.744,1.175,1.45,0.304,1.927-0.688
							c-0.329,5.26-0.994,10.321-2.341,9.722c-2.721-1.209-5.751-27.272-4.911-28.496
							C157.869,311.347,158.832,311.418,160.27,311.682z"/>
					</g>
					<path fill="#091B2E" d="M239.801,339.822c0,0-3.073-8.989-64.545-24.433c-0.234,4.812-0.64,9.61-1.114,14.405
						c15.388,10.404,36.535,26.06,49.088,32.935c20.47,11.21,27.294,14.865,25.832-2.438
						C248.064,348.49,239.801,339.822,239.801,339.822z"/>
				</g>
				<g>
					<g>
						<g>
							<path fill="#941F14" d="M300.497,277.926c3.236-3.733,6.788-7.74,10.689-12.045l7.888,3.114c0,0-4.123,10.87-9.569,24.623
								C306.351,288.473,303.308,283.265,300.497,277.926z"/>
							<path fill="#941F14" d="M300.171,279.075c0,0,14.276-18.254,15.662-17.723c1.387,0.53,12.203,21.806,10.648,24.345
								c-1.554,2.54-12.43-13.585-12.43-13.585L300.171,279.075z"/>
						</g>
						<path fill="#72A0D1" d="M313.778,262.887c2.079,3.68,8.632,15.428,8.713,17.512c0.054,1.39-1.021,1.073-1.977,0.527
							c3.255,4.146,6.674,7.936,7.443,6.678c1.555-2.54-10.737-25.722-12.124-26.252
							C315.566,261.25,314.813,261.853,313.778,262.887z"/>
					</g>
					<path fill="#091B2E" d="M267.344,324.513c0,0-5.661-2.476,36.197-50.071c2.923,3.829,5.979,7.551,9.09,11.23
						c-6.768,17.299-12.293,36.248-18.73,49.031c-10.496,20.846-13.955,26.997-22.568,11.92
						C265.458,336.339,267.344,324.513,267.344,324.513z"/>
				</g>
				<g>
					<path fill="#0C2944" d="M216.894,217.487c0,0-28.269,23.882-32.167,55.075c-3.899,31.192,50.201,103.326,62.386,99.914
						c12.185-3.411-6.336-81.394-6.336-81.394s25.831,67.26,40.453,63.36c14.621-3.899,3.899-99.427-21.445-137.443L216.894,217.487
						z"/>
					<g>
						<defs>
							<path id="SVGID_1_" d="M259.784,217l-42.89,0.487c0,0-28.269,23.882-32.167,55.075c-1.574,12.591,6.304,31.852,17.059,50.123
								c-7.341-2.238-16.092-4.674-26.53-7.296c-0.234,4.812-0.64,9.61-1.114,14.405c15.388,10.404,36.535,26.06,49.088,32.935
								c10.067,5.513,16.828,9.19,20.931,9.455c1.147,0.403,2.144,0.519,2.951,0.292c12.185-3.411-6.336-81.394-6.336-81.394
								S285.128,255.016,259.784,217z"/>
						</defs>
						<clipPath id="SVGID_2_">
							<use xlink:href="#SVGID_1_"  overflow="visible"/>
						</clipPath>
						<g clip-path="url(#SVGID_2_)">
							<path fill="#EFEEE6" d="M221.837,217.617c-2.242,1.918-4.355,4.042-6.377,6.222c-2.018,2.189-3.952,4.46-5.773,6.818
								c-3.648,4.711-6.904,9.732-9.636,15.028c-1.362,2.649-2.628,5.351-3.708,8.127c-1.083,2.774-2.04,5.6-2.826,8.474
								c-0.76,2.879-1.396,5.793-1.833,8.741c-0.446,2.948-0.608,5.914-0.531,8.896c0.143,5.956,1.173,11.875,2.708,17.639
								c1.535,5.77,3.583,11.398,5.947,16.886c2.367,5.487,5.058,10.835,7.988,16.047c2.94,5.204,6.087,10.303,9.552,15.172
								l-0.177,0.129c-1.359-1.757-2.903-3.382-4.495-4.939c-1.595-1.559-3.268-3.036-4.994-4.447
								c-3.449-2.828-7.127-5.366-10.938-7.677c-1.914-1.141-3.856-2.234-5.835-3.259c-1.981-1.019-3.985-1.994-6.025-2.889
								c-2.03-0.916-4.101-1.739-6.182-2.532c-2.083-0.789-4.192-1.503-6.311-2.186l-0.006-0.002
								c-0.256-0.083-0.397-0.357-0.314-0.614c0.083-0.256,0.357-0.396,0.614-0.313c0.001,0,0.005,0.001,0.006,0.002
								c2.126,0.719,4.241,1.468,6.328,2.291c2.084,0.828,4.158,1.688,6.189,2.639c2.041,0.93,4.044,1.94,6.024,2.993
								c1.976,1.059,3.915,2.187,5.824,3.361c3.8,2.378,7.462,4.981,10.887,7.872c1.714,1.442,3.374,2.949,4.954,4.538
								c1.579,1.59,3.101,3.235,4.452,5.034l-0.177,0.129c-3.5-4.864-6.675-9.949-9.649-15.147
								c-2.961-5.205-5.686-10.549-8.089-16.039c-2.399-5.489-4.485-11.127-6.058-16.918c-1.572-5.784-2.643-11.736-2.819-17.753
								c-0.096-2.999,0.056-6.034,0.49-9.004c0.426-2.976,1.051-5.919,1.803-8.828c0.778-2.903,1.728-5.759,2.806-8.563
								c1.076-2.807,2.337-5.539,3.697-8.217c2.728-5.356,5.984-10.436,9.638-15.206c1.824-2.388,3.762-4.688,5.788-6.909
								c2.036-2.216,4.138-4.355,6.434-6.341c0.204-0.176,0.511-0.154,0.688,0.05c0.176,0.203,0.154,0.511-0.05,0.687l-0.002,0.002
								L221.837,217.617z"/>
						</g>
						<g clip-path="url(#SVGID_2_)">
							<path fill="#EFEEE6" d="M226.469,221.758c-2.395,2.062-4.64,4.337-6.787,6.682c-2.166,2.333-4.163,4.818-6.103,7.341
								c-0.973,1.26-1.859,2.584-2.793,3.873c-0.899,1.313-1.733,2.67-2.604,4.004c-0.84,1.352-1.597,2.754-2.4,4.128
								c-0.8,1.377-1.45,2.833-2.183,4.247c-0.755,1.404-1.31,2.899-1.952,4.356c-0.306,0.733-0.636,1.459-0.924,2.201l-0.786,2.254
								c-1.131,2.979-1.881,6.081-2.66,9.164l-0.872,4.695c-0.172,0.779-0.225,1.555-0.313,2.359
								c-0.077,0.795-0.191,1.593-0.189,2.381c-0.204,3.156,0.063,6.354,0.407,9.511c0.4,3.159,1.023,6.289,1.777,9.388
								c0.791,3.088,1.673,6.157,2.726,9.171c1.013,3.027,2.182,6.001,3.392,8.955c1.239,2.943,2.534,5.864,3.92,8.742
								c2.76,5.763,5.783,11.4,9.01,16.916c3.229,5.515,6.634,10.934,10.3,16.167l0.001,0.001l-0.127,0.102
								c-1.874-2.038-3.845-3.991-5.863-5.89c-1.003-0.955-2.043-1.871-3.063-2.809l-3.139-2.724l-3.212-2.636
								c-1.081-0.866-2.189-1.697-3.282-2.548c-1.083-0.862-2.232-1.638-3.348-2.457l-1.685-1.213l-1.726-1.154
								c-1.159-0.757-2.288-1.56-3.47-2.278l-3.543-2.162c-1.176-0.729-2.413-1.353-3.616-2.033
								c-1.208-0.672-2.416-1.347-3.67-1.929l-3.725-1.819l-3.813-1.62l-1.908-0.807l-1.952-0.689l-3.904-1.377l-0.03-0.01
								c-0.254-0.09-0.387-0.368-0.297-0.622s0.368-0.387,0.622-0.298c0.001,0.001,0.004,0.002,0.005,0.002l3.926,1.438l1.961,0.722
								l1.915,0.836l3.824,1.68l3.729,1.878c1.256,0.602,2.462,1.296,3.669,1.985c1.202,0.7,2.438,1.342,3.61,2.089l3.533,2.216
								c1.178,0.736,2.303,1.557,3.456,2.33l1.718,1.18l1.676,1.238c1.109,0.835,2.252,1.627,3.329,2.506
								c1.086,0.866,2.187,1.713,3.26,2.594l3.188,2.682l3.112,2.768c1.01,0.952,2.041,1.883,3.034,2.853
								c1.999,1.926,3.947,3.904,5.802,5.973l-0.126,0.101h0c-3.701-5.223-7.134-10.625-10.397-16.129
								c-3.26-5.505-6.316-11.133-9.111-16.891c-1.405-2.876-2.718-5.796-3.975-8.74c-1.229-2.956-2.417-5.932-3.45-8.964
								c-1.072-3.02-1.975-6.097-2.787-9.197c-0.775-3.111-1.418-6.258-1.839-9.442c-0.364-3.189-0.652-6.392-0.461-9.628
								c-0.003-0.813,0.106-1.602,0.178-2.398c0.081-0.784,0.135-1.608,0.304-2.393l0.854-4.741c0.768-3.114,1.51-6.248,2.634-9.259
								l0.781-2.279c0.287-0.749,0.615-1.482,0.92-2.225c0.639-1.473,1.192-2.984,1.945-4.404c0.731-1.429,1.38-2.902,2.179-4.295
								c0.802-1.39,1.558-2.809,2.398-4.176c0.87-1.349,1.704-2.722,2.604-4.051c0.935-1.305,1.822-2.645,2.796-3.92
								c1.943-2.555,3.944-5.071,6.117-7.438c2.158-2.381,4.4-4.68,6.84-6.804c0.203-0.177,0.511-0.156,0.688,0.047
								s0.156,0.511-0.047,0.688l-0.002,0.002L226.469,221.758z"/>
						</g>
					</g>
					<g>
						<path fill="#091B2E" d="M261.978,220.499c-0.719-1.212-1.449-2.383-2.194-3.5l-42.89,0.487c0,0-2.143,1.814-5.323,5.08
							C227.451,224.394,248.364,225.37,261.978,220.499z"/>
						<path fill="#091B2E" d="M277.663,260.15c-7.006,10.814-19.019,25.558-35.912,33.045l0.987,2.804
							c6.293,15.424,26.292,61.697,38.492,58.444C291.676,351.657,289.182,302.092,277.663,260.15z"/>
					</g>
				</g>
			</g>
			<g>
				<g>
					<g>
						<g>
							<path fill="#091B2E" d="M202.394,98.564c0,0,12.185-15.353,1.097-18.643c-11.088-3.29-15.718-3.412-12.063-8.895
								c0,0-10.235,1.097-9.382,12.916c0.853,11.819,15.84,9.992,15.84,9.992s-18.399-2.803-17.911-11.21
								c0,0-6.824,11.21,3.899,17.668c10.722,6.458,14.012-7.92,18.521-0.731S202.394,98.564,202.394,98.564z"/>
							<ellipse fill="#E94137" cx="205.332" cy="98.212" rx="5.369" ry="4.602"/>
						</g>
						<path fill="#091B2E" d="M212.629,97.102c0,0,11.454-22.054,29.975-16.571c16.701,4.944,4.358,14.338,10.722,20.349
							c4.387,4.143,9.499,2.061,11.941,6.945c4.508,9.017-10.228,16.126-2.071,19.496c5.604,2.315,5.604-5.24,5.604-5.24
							s1.462,1.462,1.828,4.387c0.365,2.924-1.706,11.088-14.987,8.164s-11.454-22.054-11.454-22.054L212.629,97.102z"/>
					</g>
					<g>
						<g>
							<path fill="#941F14" d="M248.594,158.251l-9.732-0.471c0,0-0.443-8.901-2.493-20.566l-16.631-1.352
								c0,0,2.78,18.245-0.144,23.363s21.445,40.697,31.437,29.243C261.022,177.015,248.594,158.251,248.594,158.251z"/>
							<path fill="#72140F" d="M220.786,146.034c-0.318-5.368-1.048-10.171-1.048-10.171l16.631,1.352
								c1.624,9.242,2.238,16.729,2.423,19.45C232.16,154.264,225.936,150.591,220.786,146.034z"/>
						</g>
						<g>
							<path fill="#941F14" d="M217.857,99.207c0,0,19.79-9.963,29.873,11.326c10.083,21.29,5.932,36.324-8.803,37.618
								c-8.787,0.772-17.563-1.604-24.421-13.196C207.647,123.363,199.211,107.155,217.857,99.207z"/>
							<path fill="#091B2E" d="M230.297,94.665c0,0,4.752,4.021,2.559,10.601c-2.193,6.58-12.063,1.828-12.428,9.382
								c-0.366,7.555,6.214,19.008-5.361,22.542c0,0-2.803-12.794-5.849-10.601c-3.046,2.193,11.454,15.596,11.454,15.596
								s-27.538-7.798-23.517-32.777S227.86,92.106,230.297,94.665z"/>
						</g>
					</g>
				</g>
				<g>
					<path fill="#FFFFFF" d="M231.321,136.798c0,0,10.19-1.838,17.919-4.595C249.24,132.203,244.271,142.041,231.321,136.798z"/>
					<g>
						<path fill="#590C08" d="M243.278,131.907c0.962-1.733,2.032-3.386,3.142-5.009l0.28,0.815
							c-0.366-0.089-0.643-0.196-0.944-0.327c-0.29-0.133-0.579-0.269-0.852-0.428c-0.561-0.298-1.067-0.675-1.559-1.063
							c-0.246-0.195-0.473-0.409-0.71-0.614c-0.238-0.204-0.437-0.445-0.656-0.667c-0.222-0.22-0.412-0.466-0.612-0.703
							c-0.197-0.239-0.404-0.471-0.57-0.733c-0.361-0.503-0.698-1.02-0.997-1.558c-0.316-0.528-0.557-1.094-0.82-1.644
							c-0.238-0.563-0.442-1.139-0.642-1.711c-0.172-0.584-0.317-1.175-0.449-1.765c0.322,0.519,0.626,1.037,0.911,1.56
							c0.329,0.502,0.614,1.021,0.936,1.516c0.341,0.483,0.622,1,0.989,1.458c0.331,0.482,0.679,0.947,1.054,1.39
							c0.363,0.451,0.741,0.888,1.142,1.299c0.403,0.411,0.813,0.809,1.245,1.183c0.439,0.363,0.891,0.711,1.362,1.022
							c0.233,0.162,0.478,0.3,0.722,0.436c0.24,0.124,0.511,0.263,0.72,0.346l0.723,0.287l-0.442,0.529
							C245.987,129.034,244.686,130.511,243.278,131.907z"/>
					</g>
					<g>
						<path fill="#091B2E" d="M220.268,120.538c0,0,0.033-0.271,0.175-0.723c0.138-0.454,0.387-1.086,0.802-1.79
							c0.406-0.709,0.994-1.479,1.755-2.198c0.394-0.34,0.803-0.708,1.274-1.004c0.476-0.292,0.964-0.586,1.505-0.782
							c0.523-0.234,1.08-0.376,1.636-0.481c0.544-0.162,1.112-0.096,1.639-0.14c0.53-0.042,1.036,0.105,1.509,0.161
							c0.479,0.04,0.896,0.241,1.286,0.37c0.386,0.143,0.742,0.253,1.022,0.442c0.29,0.162,0.532,0.322,0.729,0.449
							c0.394,0.26,0.603,0.423,0.603,0.423s-0.28-0.003-0.74-0.036c-0.229-0.019-0.507-0.036-0.812-0.078
							c-0.303-0.056-0.663-0.014-1.031-0.038c-0.374,0.008-0.768-0.052-1.182,0.003c-0.412,0.053-0.844,0.031-1.275,0.118
							c-0.43,0.095-0.88,0.124-1.31,0.279c-0.436,0.125-0.879,0.236-1.296,0.439c-0.439,0.142-0.837,0.383-1.25,0.583
							c-0.399,0.223-0.797,0.455-1.168,0.703c-0.352,0.274-0.734,0.498-1.053,0.773c-0.332,0.257-0.638,0.519-0.927,0.761
							c-0.561,0.498-1.041,0.934-1.367,1.255C220.458,120.342,220.268,120.538,220.268,120.538z"/>
					</g>
					<g>
						<path fill="#091B2E" d="M237.614,113.743c0,0,0.172-0.777,0.788-1.723c0.292-0.485,0.71-0.995,1.214-1.498
							c0.268-0.236,0.535-0.493,0.851-0.708c0.313-0.221,0.633-0.437,0.995-0.61c0.348-0.185,0.728-0.333,1.118-0.441
							c0.369-0.144,0.803-0.152,1.181-0.207c0.397-0.005,0.791,0.032,1.143,0.096c0.355,0.114,0.684,0.216,0.955,0.367
							c0.268,0.167,0.493,0.34,0.681,0.491c0.184,0.156,0.296,0.354,0.401,0.486c0.198,0.282,0.284,0.447,0.284,0.447
							s-0.206-0.037-0.517-0.109c-0.157-0.032-0.33-0.092-0.533-0.123c-0.211-0.012-0.438-0.023-0.661-0.058
							c-0.234-0.004-0.486,0.05-0.728,0.049c-0.251,0.05-0.507,0.107-0.766,0.167c-0.263,0.115-0.529,0.149-0.802,0.292
							c-0.271,0.117-0.552,0.225-0.825,0.385c-0.561,0.265-1.114,0.613-1.657,0.918c-0.531,0.33-1.05,0.634-1.509,0.9
							C238.323,113.406,237.614,113.743,237.614,113.743z"/>
					</g>
					<g>
						<path fill="#001014" d="M226.787,127.376c0,0-0.11-0.199-0.258-0.57c-0.148-0.374-0.333-0.917-0.436-1.61
							c-0.052-0.346-0.088-0.729-0.071-1.142c0.024-0.412,0.059-0.861,0.224-1.316c0.163-0.446,0.377-0.938,0.777-1.315
							c0.38-0.381,0.869-0.69,1.378-0.837l0.192-0.058c0.054-0.012,0.016-0.012,0.145-0.035l0.082-0.011l0.329-0.045
							c0.28-0.008,0.612-0.016,0.862,0.049c0.539,0.09,1.015,0.352,1.391,0.643c0.77,0.587,1.202,1.322,1.515,1.939
							c0.311,0.624,0.473,1.174,0.574,1.559c0.099,0.386,0.133,0.612,0.133,0.612s-0.134-0.182-0.369-0.5
							c-0.231-0.316-0.559-0.766-0.971-1.261c-0.421-0.481-0.925-1.038-1.537-1.396c-0.298-0.195-0.629-0.293-0.952-0.346
							c-0.177-0.039-0.291-0.015-0.45-0.022l-0.328,0.057l-0.082,0.014c0.074-0.015-0.015,0.011-0.015,0.011l-0.125,0.043
							c-0.691,0.182-1.171,0.672-1.473,1.315c-0.293,0.647-0.419,1.379-0.479,2.017c-0.055,0.639-0.063,1.195-0.06,1.583
							C226.786,127.15,226.787,127.376,226.787,127.376z"/>
					</g>
					<g>
						<path fill="#001014" d="M243.059,121.95c0,0-0.104-0.189-0.25-0.537c-0.148-0.35-0.33-0.859-0.458-1.504
							c-0.125-0.643-0.229-1.425-0.05-2.303c0.083-0.433,0.248-0.909,0.57-1.324c0.309-0.421,0.795-0.76,1.302-0.902l0.19-0.056
							c0.04-0.008-0.021-0.001,0.101-0.021l0.039-0.004l0.078-0.008c0.116-0.008,0.185-0.031,0.338-0.026
							c0.151,0.004,0.303,0.015,0.452,0.03l0.386,0.099c0.502,0.163,0.892,0.472,1.218,0.773c0.626,0.633,1.002,1.323,1.263,1.922
							c0.265,0.599,0.408,1.121,0.497,1.486c0.088,0.366,0.119,0.581,0.119,0.581s-0.123-0.176-0.339-0.482
							c-0.21-0.307-0.509-0.742-0.878-1.236c-0.373-0.488-0.829-1.037-1.368-1.474c-0.271-0.211-0.572-0.362-0.86-0.456l-0.22-0.05
							c-0.059,0.002-0.116,0-0.174-0.009c-0.056-0.01-0.194,0.023-0.288,0.032l-0.078,0.011l-0.04,0.006
							c0.096-0.018,0.011,0.001,0.025,0l-0.11,0.039c-0.308,0.074-0.553,0.235-0.744,0.474c-0.188,0.236-0.363,0.524-0.454,0.859
							c-0.217,0.656-0.26,1.374-0.291,1.982c-0.017,0.613-0.011,1.142,0.003,1.509C243.052,121.736,243.059,121.95,243.059,121.95z"
							/>
					</g>
					<g>
						<path fill="#941F14" d="M218.234,137.677c0,0-2.315-11.819-6.945-11.697c-4.63,0.122-4.491,5.692-1.706,8.895
							C212.02,137.677,216.284,140.114,218.234,137.677z"/>
						<g>
							<path fill="#590C08" d="M215.943,137.204c-0.369-0.104-0.729-0.24-1.078-0.416c-0.346-0.182-0.688-0.382-0.994-0.711
								c-0.069-0.097-0.148-0.177-0.205-0.296c-0.045-0.131-0.126-0.238-0.119-0.406c-0.014-0.162,0-0.32,0.075-0.461
								c0.058-0.162,0.144-0.268,0.238-0.359c0.192-0.223,0.385-0.29,0.586-0.426c0.194-0.089,0.388-0.167,0.585-0.249l-0.378,0.611
								c-0.261-0.965-0.564-1.944-0.885-2.887c-0.343-0.929-0.689-1.886-1.203-2.614c-0.125-0.174-0.257-0.345-0.394-0.45
								c-0.137-0.111-0.257-0.16-0.373-0.177c-0.051-0.019-0.143,0.004-0.183,0.004l-0.363,0.125l-0.242,0.125l-0.249,0.182
								c-0.639,0.552-0.867,1.618-0.829,2.651c-0.215-0.48-0.342-1.014-0.337-1.57c0.012-0.277,0.027-0.567,0.127-0.847
								c0.082-0.283,0.23-0.553,0.413-0.805c0.185-0.245,0.434-0.451,0.73-0.631l0.349-0.18c0.201-0.083,0.364-0.134,0.571-0.142
								c0.403-0.028,0.782,0.131,1.063,0.318c0.291,0.19,0.497,0.418,0.693,0.645c0.378,0.46,0.635,0.958,0.869,1.45
								c0.236,0.492,0.419,0.998,0.579,1.506s0.312,1.015,0.418,1.533c0.11,0.519,0.221,1.025,0.288,1.562l0.062,0.498l-0.44,0.114
								l-0.477,0.124l-0.199,0.085c-0.08,0.025-0.119,0.06-0.159,0.09c-0.055,0.028-0.096,0.057-0.102,0.078
								c-0.037,0.02-0.041,0.047-0.049,0.076c-0.033,0.024,0.009,0.087,0.003,0.137c0.008,0.056,0.054,0.123,0.078,0.188
								c0.147,0.272,0.404,0.542,0.669,0.792C215.352,136.725,215.642,136.968,215.943,137.204z"/>
						</g>
					</g>
				</g>
			</g>
			<g>
				<g>
					<path fill="#941F14" d="M149.345,65.316c-4.016-4.5-6.837-7.702-6.837-7.702c-0.721-23.144-2.576-4.251-2.576-4.251
						c-13.595-20.597-3.443-0.149-3.443-0.149c-14.763-25.477-2.125,1.288-2.125,1.288c-14.464-24.43-2.425,0.239-2.425,0.239
						c-11.161-16.856-3.209-1.887,8.566,17.531C143.456,69.959,146.405,67.643,149.345,65.316z"/>
					<path fill="#941F14" d="M332.826,91.28c4.889-3.532,8.333-6.053,8.333-6.053c5.677-22.448,3.429-3.599,3.429-3.599
						c17.703-17.195,3.395,0.594,3.395,0.594c19.893-21.71,1.799,1.714,1.799,1.714c19.375-20.751,2.317,0.755,2.317,0.755
						c14.521-14.065,3.539-1.154-12.133,15.281C337.58,97.08,335.198,94.184,332.826,91.28z"/>
				</g>
				<g>
					<path fill="#72A0D1" d="M219.307,220.151c0,0-10.546,3.164-16.347-10.546s-0.527-20.038-10.019-36.384
						c-9.492-16.346-61.695-93.333-56.422-104.407c5.273-11.073,11.073-8.437,14.237-4.218s31.111,58.531,50.094,69.077
						c18.983,10.546,15.292,23.729,30.056,25.311c14.765,1.582,13.183-13.709,34.275-22.674
						c21.092-8.964,62.222-48.512,68.022-49.567c5.8-1.055,12.128,4.746,11.073,11.073s-68.55,66.441-72.769,82.787
						C267.292,196.95,289.439,228.588,219.307,220.151z"/>
					<g>
						<path fill="#5280AA" d="M263.074,150.02c0,12.361,4.309,24.715,7.999,33.036c0.095-0.848,0.235-1.668,0.438-2.452
							c1.354-5.247,9.232-15.007,19.337-26.047C275.088,154.794,263.074,150.02,263.074,150.02z"/>
						<path fill="#5280AA" d="M237.763,201.696c-16.069,2.857-34.311-15.564-44.416-27.756c8.921,15.812,3.9,22.16,9.614,35.666
							c5.8,13.71,16.347,10.546,16.347,10.546c52.966,6.372,53.298-10.114,52.104-25.607
							C265.242,196.113,253.469,198.904,237.763,201.696z"/>
					</g>
				</g>
			</g>
		</g>
		<g>
			<g>
				<g>
					<g>
						<g>
							<path fill="#E94137" d="M406.313,404.8l-10.092,24.326c0,0,53.511,44.429,14.077-2.872l16.7-29.833L406.313,404.8z"/>
							<path fill="#FF8B45" d="M403.795,424.896c-1.587-0.753-3.079-1.505-4.721-2.647l7.238-17.448l20.686-8.379l-16.293,30.378
								C407.47,426.543,406.71,426.278,403.795,424.896z"/>
						</g>
						<g>
							<path fill="#EFEEE6" d="M419.675,438.043c13.791,18.802,2.712,11.938-8.433,3.372
								C413.821,439.833,416.699,438.795,419.675,438.043z"/>
							<g>
								<path fill="#EFEEE6" d="M426.012,448.41c2.748,9.171-29.963-19.052-29.963-19.052l0.586-1.401
									C399.245,430.2,422.903,450.405,426.012,448.41z"/>
							</g>
							<path fill="none" stroke="#FFFFFF" stroke-width="0.9873" stroke-linecap="round" stroke-miterlimit="10" d="
								M413.459,429.034c0,0-3.119-1.55-5.457-0.217"/>
							<path fill="none" stroke="#FFFFFF" stroke-width="0.9873" stroke-linecap="round" stroke-miterlimit="10" d="M415.29,431.734
								c0,0-3.119-1.55-5.457-0.217"/>
							<path fill="none" stroke="#FFFFFF" stroke-width="0.9873" stroke-linecap="round" stroke-miterlimit="10" d="
								M417.401,434.652c0,0-3.119-1.55-5.456-0.217"/>
						</g>
					</g>
					<g>
						<g>
							<path fill="#E94137" d="M348.014,331.087l-25.967-4.402c0,0-31.353,62.083,5.944,13.08l32.81,9.614L348.014,331.087z"/>
							<path fill="#FF8B45" d="M327.863,333.124c0.379-1.716,0.779-3.339,1.526-5.194l18.624,3.158l12.788,18.292l-33.25-9.097
								C327.078,337.073,327.167,336.273,327.863,333.124z"/>
						</g>
						<g>
							<path fill="#EFEEE6" d="M318.595,351.539c-15.246,17.642-11.03,5.31-5.171-7.467
								C315.542,346.232,317.197,348.805,318.595,351.539z"/>
							<g>
								<path fill="#EFEEE6" d="M309.906,360.031c-8.324,4.727,11.878-33.462,11.878-33.462l1.497,0.258
									C321.676,329.872,307.267,357.445,309.906,360.031z"/>
							</g>
							<path fill="none" stroke="#FFFFFF" stroke-width="0.9873" stroke-linecap="round" stroke-miterlimit="10" d="
								M325.989,343.466c0,0,0.813-3.387-1.008-5.367"/>
							<path fill="none" stroke="#FFFFFF" stroke-width="0.9873" stroke-linecap="round" stroke-miterlimit="10" d="
								M323.765,345.853c0,0,0.814-3.386-1.007-5.366"/>
							<path fill="none" stroke="#FFFFFF" stroke-width="0.9873" stroke-linecap="round" stroke-miterlimit="10" d="
								M321.393,348.564c0,0,0.813-3.387-1.008-5.367"/>
						</g>
					</g>
				</g>
				<g>
					<path fill="#5788B5" d="M390.489,269.438l7.928,16.058c0,0,24.379,59.427,25.86,68.746c0,0-23.343,48.501-26.124,57.304
						c0,0,9.821,9.188,16.202,11.757c0,0,32.438-58.905,36.596-70.315c4.158-11.41-39-113.835-39-113.835L390.489,269.438z"/>
					<g>
						<path fill="#72A0D1" d="M353.148,244.917c0,0-1.445,24.715,8.018,42.918c9.463,18.202,24.671,46.241,24.671,46.241
							l-51.243-6.782l-0.438,19.777c0,0,66.677,17.467,77.28,12.795c10.604-4.672-13.019-74.371-13.019-74.371l27.43-11.527
							l-13.896-34.816L353.148,244.917z"/>
						<path fill="#5788B5" d="M398.633,255.047c5.689-2.257,11.155-5.002,16.438-8.077l-3.12-7.818l-58.803,5.766
							c0,0-0.397,6.838,0.6,15.966C368.73,259.485,384.641,260.596,398.633,255.047z"/>
						<path fill="none" stroke="#5280AA" stroke-width="1.1168" stroke-miterlimit="10" stroke-dasharray="4.4672" d="
							M334.328,336.891c0,0,57.411,11.774,61.025,8.214s-34.662-71.527-31.046-101.364"/>
					</g>
				</g>
			</g>
			<g>
				<g>
					<g>
						<polygon fill="#E27037" points="380.693,124.389 378.693,152.389 365.36,148.389 378.027,171.722 402.693,172.389 
							410.693,162.389 398.693,158.389 400.693,135.055 						"/>
						<g>
							<path fill="#FF8B45" d="M388.286,93.153c0,0,24.145,2.48,27.52,4.81s2.915,39.771-0.197,47.209s-25.595,11.001-32.211-5.615
								C376.78,122.94,377.794,95.907,388.286,93.153z"/>
							<path fill="#FF8B45" d="M380.527,113.889c0,0-2.723-7.717-8.167-2.667c-5.444,5.051,1.409,20.287,7.63,16.648
								S380.527,113.889,380.527,113.889z"/>
						</g>
					</g>
					<g>
						<path fill="#A82F29" d="M379.693,114.555c0.182,1.731,0.845,4.316,0.5,7c1.636-0.261,1.662-0.13,3.302-0.349
							c0.019-4.019,0.274-7.759,0.773-10.372c0,0,6.67-4.862,6.806-13.704c0,0,17.364,11.093,28.765,3.635
							c11.085-7.252,10.102-17.709,10.102-17.709s-4.025,7.713-5.988,7.64c0,0,5.784-7.451-1.259-13.613
							c0,0-0.599,5.482-3.581,6.354c0,0,3.07-3.228,1.065-7.431c0,0-1.807,6.224-5.34,6.091
							c-3.534-0.132-21.817-10.648-29.509,0.466c-1.183,1.709-1.847,3.184-2.129,4.461c-2.812-1.289-6.049-1.458-9.29,1.205
							c-8.926,7.333-0.637,22.193-0.637,22.193S378.969,107.647,379.693,114.555z"/>
					</g>
				</g>
				<g>
					<path fill="#FFFFFF" d="M392.646,135.244c0,0,11.14,1.988,20.105,2.1C412.751,137.344,403.922,145.535,392.646,135.244z"/>
					<g>
						<path fill="#D65730" d="M404.422,133.305c1.026-0.264,2.04-0.541,2.998-0.922c0.482-0.179,0.948-0.391,1.37-0.643
							c0.216-0.122,0.411-0.259,0.595-0.4c0.183-0.146,0.326-0.307,0.452-0.469l-0.018,0.594c-0.378-0.505-0.704-1.043-0.99-1.591
							c-0.154-0.271-0.276-0.551-0.405-0.831c-0.131-0.279-0.245-0.563-0.354-0.848c-0.466-1.133-0.799-2.302-1.098-3.474
							c-0.287-1.175-0.514-2.361-0.672-3.557c-0.155-1.195-0.264-2.397-0.253-3.61c0.38,1.149,0.723,2.295,1.063,3.438
							c0.337,1.143,0.668,2.282,1.019,3.41l0.526,1.688c0.2,0.551,0.368,1.115,0.577,1.659c0.098,0.275,0.2,0.549,0.316,0.813
							c0.118,0.263,0.203,0.547,0.33,0.803l0.365,0.781c0.142,0.244,0.272,0.495,0.406,0.748l0.191,0.365l-0.209,0.229
							c-0.219,0.238-0.452,0.442-0.7,0.603c-0.249,0.155-0.498,0.302-0.759,0.405c-0.518,0.221-1.042,0.376-1.568,0.496
							C406.547,133.215,405.485,133.329,404.422,133.305z"/>
					</g>
					<g>
						<path fill="#941F14" d="M390.478,113.166c0,0,0.083-0.271,0.327-0.682c0.235-0.418,0.635-0.968,1.215-1.545
							c0.583-0.57,1.366-1.141,2.316-1.589c0.478-0.211,0.993-0.411,1.539-0.538c0.551-0.122,1.116-0.229,1.7-0.229
							c0.579-0.034,1.16,0.026,1.724,0.134c0.284,0.035,0.56,0.095,0.821,0.201c0.264,0.09,0.524,0.177,0.773,0.279
							c0.507,0.178,0.926,0.501,1.338,0.745c0.418,0.24,0.723,0.591,1.022,0.872c0.287,0.298,0.554,0.555,0.724,0.851
							c0.19,0.272,0.331,0.531,0.447,0.737c0.23,0.415,0.326,0.67,0.326,0.67s-0.287-0.058-0.728-0.19
							c-0.219-0.068-0.485-0.141-0.762-0.249c-0.272-0.12-0.625-0.162-0.961-0.264c-0.346-0.082-0.682-0.236-1.07-0.28
							c-0.383-0.053-0.75-0.195-1.149-0.222c-0.399-0.022-0.784-0.14-1.192-0.125c-0.403-0.015-0.806-0.061-1.216-0.015
							c-0.409-0.024-0.818,0.055-1.23,0.079c-0.409,0.047-0.818,0.12-1.223,0.181c-0.804,0.156-1.587,0.336-2.282,0.518
							c-0.696,0.177-1.308,0.345-1.747,0.468C390.738,113.096,390.478,113.166,390.478,113.166z"/>
					</g>
					<g>
						<path fill="#941F14" d="M407.767,113.815c0,0,0.049-0.202,0.199-0.501c0.146-0.301,0.39-0.698,0.748-1.106
							c0.706-0.814,1.932-1.643,3.5-1.849c0.379-0.06,0.799-0.047,1.197-0.014c0.401,0.036,0.815,0.164,1.184,0.293
							c0.369,0.192,0.727,0.348,0.999,0.611c0.266,0.268,0.531,0.485,0.671,0.773c0.154,0.274,0.262,0.536,0.344,0.757
							c0.06,0.235,0.07,0.455,0.084,0.625c0.021,0.342-0.013,0.535-0.013,0.535s-0.212-0.068-0.504-0.182
							c-0.145-0.058-0.317-0.119-0.482-0.196c-0.197-0.044-0.405-0.083-0.594-0.136c-0.181-0.07-0.417-0.036-0.598-0.074
							c-0.184-0.037-0.41,0.021-0.588-0.007c-0.211,0.027-0.406,0.033-0.624,0.05c-0.224,0.045-0.438,0.026-0.685,0.085
							c-0.237,0.012-0.485,0.063-0.743,0.093c-0.253,0.021-0.517,0.084-0.779,0.099c-0.524,0.075-1.056,0.118-1.54,0.151
							c-0.488,0.021-0.924,0.03-1.247,0.021C407.976,113.834,407.767,113.815,407.767,113.815z"/>
					</g>
					<g>
						<path fill="#001014" d="M393.481,120.733c0,0-0.032-0.215-0.041-0.598c-0.01-0.385,0.005-0.935,0.145-1.591
							c0.068-0.328,0.163-0.684,0.316-1.049c0.159-0.362,0.34-0.754,0.639-1.107c0.295-0.346,0.651-0.716,1.137-0.922
							c0.468-0.215,1.01-0.331,1.517-0.292l0.191,0.012c0.053,0.006,0.019-0.005,0.142,0.017l0.077,0.018l0.312,0.069
							c0.254,0.086,0.555,0.19,0.758,0.331c0.453,0.26,0.794,0.654,1.035,1.041c0.495,0.784,0.639,1.587,0.714,2.246
							c0.072,0.665,0.034,1.212-0.003,1.592c-0.039,0.38-0.085,0.594-0.085,0.594s-0.06-0.208-0.165-0.572
							c-0.103-0.361-0.246-0.874-0.452-1.456c-0.217-0.573-0.485-1.24-0.915-1.765c-0.202-0.274-0.467-0.473-0.739-0.628
							c-0.146-0.094-0.257-0.109-0.397-0.17l-0.313-0.058l-0.079-0.015c0.071,0.011-0.017,0.005-0.017,0.005l-0.128-0.003
							c-0.681-0.066-1.276,0.214-1.761,0.691c-0.479,0.483-0.836,1.1-1.101,1.652c-0.263,0.555-0.455,1.053-0.581,1.401
							C393.555,120.53,393.481,120.733,393.481,120.733z"/>
					</g>
					<g>
						<path fill="#001014" d="M409.4,121.541c0,0-0.03-0.205-0.046-0.565c-0.016-0.364-0.01-0.882,0.089-1.504
							c0.103-0.619,0.27-1.356,0.723-2.085c0.219-0.361,0.525-0.734,0.953-0.999c0.417-0.276,0.968-0.418,1.47-0.377l0.189,0.013
							c0.039,0.006-0.019-0.008,0.098,0.015l0.037,0.009l0.073,0.019c0.106,0.031,0.176,0.034,0.312,0.089
							c0.135,0.054,0.268,0.114,0.396,0.177l0.313,0.218c0.397,0.313,0.644,0.721,0.837,1.1c0.353,0.777,0.46,1.522,0.494,2.147
							c0.039,0.626-0.006,1.142-0.048,1.5c-0.043,0.358-0.086,0.561-0.086,0.561s-0.053-0.199-0.144-0.546
							c-0.088-0.345-0.211-0.836-0.378-1.402c-0.172-0.563-0.399-1.208-0.738-1.779c-0.173-0.28-0.393-0.516-0.62-0.696
							l-0.181-0.118c-0.054-0.018-0.104-0.04-0.153-0.066c-0.047-0.028-0.182-0.044-0.269-0.067l-0.074-0.016l-0.037-0.008
							c0.092,0.017,0.01,0.004,0.022,0.008l-0.111-0.002c-0.302-0.036-0.575,0.027-0.826,0.178c-0.247,0.149-0.5,0.35-0.693,0.621
							c-0.413,0.517-0.691,1.146-0.922,1.684c-0.219,0.544-0.39,1.022-0.499,1.357C409.465,121.346,409.4,121.541,409.4,121.541z"/>
					</g>
					<g>
						<path fill="#D65730" d="M377.319,125.374c-0.385-0.184-0.756-0.406-1.096-0.682c-0.17-0.139-0.333-0.29-0.481-0.463
							c-0.146-0.175-0.287-0.364-0.386-0.598c-0.063-0.107-0.083-0.243-0.109-0.375c-0.038-0.13-0.01-0.274,0.001-0.416
							c0-0.148,0.079-0.268,0.129-0.402c0.05-0.143,0.143-0.231,0.226-0.338c0.164-0.231,0.372-0.341,0.572-0.5
							c0.204-0.119,0.414-0.219,0.624-0.328l-0.302,0.342c0.201-1.272,0.366-2.576,0.437-3.849c0.022-0.32,0.019-0.634,0.022-0.95
							c-0.02-0.309-0.012-0.627-0.051-0.922c-0.02-0.306-0.082-0.587-0.148-0.857l-0.137-0.363
							c-0.066-0.083-0.115-0.197-0.178-0.267c-0.077-0.04-0.109-0.14-0.202-0.168c-0.149-0.075-0.311-0.156-0.395-0.162
							c-0.185-0.073-0.491-0.089-0.744-0.073c-0.268,0.016-0.538,0.081-0.798,0.188c-0.257,0.113-0.505,0.259-0.726,0.445
							c-0.226,0.18-0.435,0.395-0.59,0.647c-0.167,0.244-0.31,0.518-0.396,0.813c-0.058,0.146-0.094,0.297-0.114,0.453
							c-0.032,0.155-0.064,0.313-0.063,0.473c-0.031,0.323-0.003,0.648,0.021,0.984c-0.115-0.31-0.253-0.627-0.297-0.969
							c-0.064-0.336-0.089-0.694-0.035-1.044c0.016-0.178,0.043-0.355,0.1-0.527c0.04-0.178,0.1-0.349,0.185-0.512
							c0.142-0.337,0.355-0.647,0.604-0.923c0.245-0.284,0.555-0.507,0.882-0.702c0.334-0.186,0.699-0.323,1.088-0.392
							c0.401-0.048,0.771-0.074,1.222,0.047c0.244,0.05,0.382,0.117,0.534,0.178c0.229,0.075,0.405,0.26,0.599,0.406
							c0.167,0.163,0.266,0.356,0.393,0.54c0.089,0.185,0.154,0.371,0.229,0.558c0.104,0.367,0.188,0.734,0.221,1.088
							c0.093,0.714,0.06,1.408,0.011,2.089c-0.102,1.368-0.363,2.683-0.729,3.993l-0.069,0.25l-0.232,0.093
							c-0.171,0.068-0.353,0.129-0.521,0.201c-0.135,0.095-0.329,0.158-0.423,0.27c-0.055,0.051-0.133,0.097-0.154,0.159
							c-0.028,0.059-0.099,0.11-0.099,0.18c-0.011,0.066-0.054,0.13-0.036,0.209c0.007,0.076-0.008,0.154,0.023,0.239
							c0.031,0.168,0.11,0.343,0.203,0.514c0.095,0.171,0.213,0.334,0.334,0.5C376.718,124.776,377.006,125.084,377.319,125.374z"/>
					</g>
				</g>
			</g>
			<g>
				<g>
					<g>
						<path fill="#FF8B45" d="M361.516,174.88c0,0-58.338-6.866-64.867-14.818c-6.53-7.953,11.64-123.2,7.175-73.744
							c0,0,7.38-32.867,2.508,1.629c0,0,8.412-35.334,3.023,0.396c0,0,5.951-27.375,3.185,2.783c0,0,16.262-16.68-0.792,6.048
							c0,0,2.114,45.869,3.904,45.748s51.86,6.469,51.86,6.469L361.516,174.88z"/>
						<path fill="#E27037" d="M330.373,144.605c-1.018,8.394-1.771,16.823-2.104,25.259c16.536,3.048,33.248,5.015,33.248,5.015
							l5.996-25.489C367.512,149.391,345.718,146.523,330.373,144.605z"/>
					</g>
					<path fill="#E94137" d="M358.897,177.437l-23.796-1.159l2.389-33.326c0,0,21.561,2.063,39.126,7.115
						C375.334,153.042,358.897,177.437,358.897,177.437z"/>
				</g>
				<g>
					<g>
						<path fill="#FF8B45" d="M402.601,182.54c0,0,33.664,45.273,43.237,42.766c9.573-2.507,68.558-86.944,38.69-52.182
							c0,0,12.805-29.758-2.872-0.146c0,0,13.393-32.263-2.578-1.398c0,0,10.817-24.676-4.051,0.37c0,0-3.248-22.167-2.797,5.156
							c0,0-25.474,23.493-26.8,22.389c-1.326-1.104-22.214-33.434-22.214-33.434L402.601,182.54z"/>
						<path opacity="0.4" fill="#941F14" d="M437.042,187.253c-6.304-9.551-13.825-21.193-13.825-21.193l-20.616,16.479
							c0,0,7.93,10.664,17.187,21.354C425.632,198.448,431.365,192.877,437.042,187.253z"/>
					</g>
					<path fill="#E94137" d="M406.839,192.327l8.836,10.675l21.375-20.97c0,0-9.541-11.661-13.959-16.999
						S406.839,192.327,406.839,192.327z"/>
				</g>
				<g>
					<path fill="#E94137" d="M408.437,159.789c-4.789,5.971-12.855,13.343-21.666,9.922c-9.276-3.603-10.437-13.402-10.155-19.644
						c-4.918-1.251-9.621-2.279-13.748-2.913c0,0-16.672,29.831-17.18,55.994c-0.508,26.163,5.131,52.996,5.131,52.996
						s47.123-0.629,63.842-12.896c0,0-7.994-27.832-1.76-50.787s10.19-27.428,10.19-27.428S417.066,162.751,408.437,159.789z"/>
					<path opacity="0.4" fill="#941F14" d="M411.722,228.565c-13.202,3.595-27.251,2.495-38-7.006
						c-15.02-13.275-18.274-35.122-19.777-54.867c-4.056,10.538-8.014,23.914-8.257,36.456c-0.508,26.163,5.131,52.996,5.131,52.996
						s47.123-0.629,63.842-12.896C414.661,243.248,412.945,237.265,411.722,228.565z"/>
				</g>
			</g>
		</g>
	</g>
</g>
</svg>
