<?xml version="1.0" encoding="utf-8"?>
<!-- Generator: Adobe Illustrator 16.0.0, SVG Export Plug-In . SVG Version: 6.00 Build 0)  -->
<!DOCTYPE svg PUBLIC "-//W3C//DTD SVG 1.1//EN" "http://www.w3.org/Graphics/SVG/1.1/DTD/svg11.dtd">
<svg version="1.1" id="Layer_1" xmlns="http://www.w3.org/2000/svg" xmlns:xlink="http://www.w3.org/1999/xlink" x="0px" y="0px"
	 width="3700px" height="1750px" viewBox="0 0 3700 1750" enable-background="new 0 0 3700 1750" xml:space="preserve">
<g>
	<g>
		<path fill="#EBF5F5" d="M317.077,1728.706H3552.58c268.18-153.47,130.17-615.269-93.834-708.883
			c-241.117-100.77,141.762-449.273-229.67-562.391c-242.514-73.856-571.195,8.651-731.742-150.352
			c-188.631-186.814-501.982-414.199-1085.582-237.503C961.646,205.856,1206.12,468.585,469.569,547.688
			C90.828,588.361,164.015,936.365,199.33,1008.28c30.759,62.634,234.25,161.984-48.558,298.797
			C-263.925,1507.694,307.302,1725.011,317.077,1728.706z"/>
		<polygon opacity="0.3" fill="#80B4D0" points="3172.41,1636.847 3172.41,1322.221 3043.906,1322.221 3043.906,1090.134 
			2920.285,1090.134 2920.285,1193.475 2817.98,1193.475 2817.98,1160.201 2817.98,955.354 2650.477,955.354 2650.477,1173.087 
			2600.369,1174.484 2600.369,954.945 2541.91,954.945 2541.91,861.393 2506.834,861.393 2506.834,798.559 2369.875,798.559 
			2369.875,861.393 2334.799,861.393 2334.799,954.945 2276.34,954.945 2276.34,1073.871 2249.365,1075.273 2241.266,722.939 
			2060.879,722.939 2060.879,910.374 1997.408,911.771 1997.408,618.82 1975.695,618.82 1975.695,556.999 1785.288,556.999 
			1785.288,618.82 1763.574,618.82 1763.574,1013.601 1723.488,1013.601 1723.488,890.507 1690.083,890.507 1690.083,830.313 
			1641.646,830.313 1641.646,654.611 1571.496,654.611 1566.368,862.153 1489.654,862.153 1489.654,898.112 1466.27,898.112 
			1447.897,897.906 1447.897,692.648 953.503,696.599 953.503,1180.265 911.748,1182.265 911.748,854.828 761.424,854.828 
			761.424,991.665 717.999,992.254 717.999,941.397 622.794,941.397 622.794,1113.594 527.59,1113.594 527.59,1636.847 		"/>
		<polygon fill="#3C8F7C" points="694.927,966.334 636.949,1428.339 752.906,1428.339 		"/>
		<polygon fill="#3C8F7C" points="803.765,1095.308 764.008,1412.104 843.521,1412.104 		"/>
		<polygon fill="#3C8F7C" points="1760.737,1155.173 1717.303,1501.28 1804.172,1501.28 		"/>
		<polygon fill="#3C8F7C" points="1842.272,1251.792 1812.49,1489.12 1872.055,1489.12 		"/>
		<polygon fill="#3C8F7C" points="1652.687,1262.013 1622.904,1499.339 1682.47,1499.339 		"/>
		<path fill="#86AFD2" d="M916.245,1280.893c640.898-24.268,1047.675,428.868,1452.386,428.868s491.855-124.88,643.625-98.472
			c151.766,26.407,355.508,98.472,355.508,98.472l-3007.441,8.765C360.323,1718.525,557.519,1294.478,916.245,1280.893z"/>
		<polygon fill="#3C8F7C" points="2402.84,1106.495 2359.811,1449.377 2445.871,1449.377 		"/>
		<polygon fill="#3C8F7C" points="2525.012,995.269 2467.035,1457.273 2582.992,1457.273 		"/>
		<polygon fill="#3C8F7C" points="2646.947,1185.873 2607.191,1502.671 2686.703,1502.671 		"/>
		<path fill="#86AFD2" d="M2731.398,1343.573c-358.977,3.168-933.327,366.188-1338.038,366.188
			c-404.711,0-491.856-124.88-643.623-98.472c-151.767,26.407-355.508,98.472-355.508,98.472l3129.563,21.563
			C3523.793,1731.324,3289.197,1338.652,2731.398,1343.573z"/>
		<path fill="#96D2C5" d="M360.323,1718.525c0,0,388.257-332.539,888.876-352.967c168.107-6.859,856.461,130.671,1436.116,238.719
			c24.367,4.542,77.053,49.011,101.727,53.584c274.41,50.86,530.148,61.609,612.863,64.892L360.323,1718.525z"/>
		<path opacity="0.5" fill="#FFFFFF" d="M2132.223,326.487c-5.895-25.305-28.861-44.183-56.313-44.183
			c-5.041,0-9.928,0.639-14.588,1.834c-13.549-28.569-42.953-48.365-77.053-48.365c-8.816,0-17.318,1.323-25.313,3.779
			c-18.355-29.972-51.707-50.012-89.805-50.012c-45.328,0-83.936,28.366-98.564,68.076c-10.355-5.691-22.275-8.947-34.973-8.947
			c-39.732,0-71.94,31.759-71.94,70.934c0,2.323,0.122,4.617,0.343,6.884H2132.223z"/>
		<path opacity="0.5" fill="#FFFFFF" d="M2971.207,834.134c2.838-12.187,13.898-21.277,27.119-21.277
			c2.426,0,4.779,0.308,7.025,0.884c6.523-13.759,20.684-23.291,37.104-23.291c4.246,0,8.34,0.638,12.189,1.82
			c8.84-14.433,24.9-24.084,43.246-24.084c21.828,0,40.42,13.661,47.465,32.783c4.986-2.741,10.727-4.31,16.842-4.31
			c19.133,0,34.645,15.295,34.645,34.16c0,1.118-0.061,2.223-0.166,3.314H2971.207z"/>
		<path opacity="0.5" fill="#FFFFFF" d="M1416.492,456.959c-3.49-14.975-17.08-26.146-33.326-26.146
			c-2.983,0-5.875,0.378-8.634,1.086c-8.018-16.908-25.419-28.623-45.599-28.623c-5.217,0-10.248,0.783-14.98,2.236
			c-10.863-17.736-30.599-29.597-53.146-29.597c-26.825,0-49.673,16.787-58.33,40.288c-6.128-3.369-13.183-5.295-20.697-5.295
			c-23.514,0-42.574,18.793-42.574,41.978c0,1.375,0.072,2.732,0.204,4.073H1416.492z"/>
		<path opacity="0.5" fill="#FFFFFF" d="M2744.953,631.785c-4.713-20.225-23.066-35.311-45.006-35.311
			c-4.029,0-7.936,0.51-11.66,1.465c-10.83-22.832-34.33-38.654-61.582-38.654c-7.045,0-13.84,1.059-20.23,3.021
			c-14.67-23.953-41.324-39.969-71.771-39.969c-36.229,0-67.084,22.67-78.773,54.407c-8.277-4.549-17.805-7.151-27.953-7.151
			c-31.752,0-57.494,25.382-57.494,56.691c0,1.856,0.096,3.689,0.275,5.501H2744.953z"/>
		<path opacity="0.5" fill="#FFFFFF" d="M385.323,768.186c2.348-10.081,11.498-17.602,22.436-17.602c2.007,0,3.954,0.255,5.812,0.73
			c5.397-11.382,17.112-19.269,30.697-19.269c3.512,0,6.899,0.527,10.084,1.505c7.313-11.94,20.6-19.924,35.778-19.924
			c18.059,0,33.44,11.3,39.268,27.121c4.125-2.268,8.875-3.564,13.933-3.564c15.829,0,28.661,12.652,28.661,28.261
			c0,0.924-0.048,1.84-0.136,2.741H385.323z"/>
		<path fill="#4E9B87" d="M3481.441,1352.761l0.559-28.636c0-21.237-16.439-38.454-36.715-38.454l0,0
			c-51.096,0-92.518,43.387-92.518,96.906v39.128c0,17.141-9.232,32.026-22.771,39.494c-12.299,6.782-19.816,20.337-19.816,34.894
			v20.629c0,22.334,10.008,43.182,26.637,57.16c9.725,8.176,15.951,20.729,15.951,34.808v29.208
			c0,32.292,24.992,58.469,55.82,58.469h17.59c30.828,0,55.822-26.177,55.822-58.469l0,0c-5.061-40.788,7.203-64.328,21.352-77.782
			c20.805-19.786,32.984-47.61,32.984-77.043v-4.128c0-31.064-13.682-60.147-36.557-79.925
			C3489.684,1390.288,3481.441,1376.034,3481.441,1352.761z"/>
		<path fill="#96D2C5" d="M3538.9,1730.276c0,0-142.529-186.673-232.219-215.302c-89.693-28.63-42.932,33.9-42.932,33.9
			s-121.338-120.37-179.727-104.905c-53.521,14.176,0,120.512,0,120.512s-60.281-58.884-133.387-58.884
			c-73.104,0,56.506,220.482,56.506,220.482L3538.9,1730.276z"/>
		<path fill="#3C8F7C" d="M3084.023,1726.08c0,0-97.428-256.9-218.086-227.19c-97.779,24.074-28.26,153.337-34.221,147.459
			c-5.961-5.877-58.402-93.613-143.256-93.613c-84.852,0,26.047,118.412,26.047,118.412s-180.787-55.669-194.941,2.788
			c-11.75,48.517,53.955,52.145,53.955,52.145H3084.023z"/>
		<path fill="#FFFFFF" d="M2070.104,998.537l32.016,2.729c0,0-1.793,11.936-15.906,11.135
			C2069.004,1011.427,2070.104,998.537,2070.104,998.537z"/>
		<path fill="#FFFFFF" d="M2946.043,1051.317l27.381,2.336c0,0-1.531,10.208-13.604,9.525
			C2945.102,1062.344,2946.043,1051.317,2946.043,1051.317z"/>
		<g>
			<path fill="#3C8F7C" d="M856.649,1678.107c0.548-3.203,0.833-6.48,0.833-9.813c0-37.18-35.339-67.32-78.934-67.32
				c-43.593,0-78.933,30.141-78.933,67.32c0,3.333,0.286,6.61,0.834,9.813H856.649z"/>
			<path fill="#4EB6A1" d="M945.98,1661.563c0.549-4.52,0.835-9.141,0.835-13.841c0-52.434-35.34-94.94-78.934-94.94
				c-43.594,0-78.933,42.507-78.933,94.94c0,4.7,0.285,9.321,0.834,13.841H945.98z"/>
			<path fill="#4EB6A1" d="M917.08,1719.74c-0.548-3.204-0.834-6.479-0.834-9.814c0-37.179,35.34-67.32,78.934-67.32
				s78.934,30.142,78.934,67.32c0,3.335-0.286,6.61-0.834,9.814H917.08z"/>
			<path fill="#3C8F7C" d="M790.753,1719.74c-0.696-4.518-1.058-9.14-1.058-13.84c0-52.435,44.8-94.939,100.064-94.939
				c55.263,0,100.064,42.505,100.064,94.939c0,4.7-0.362,9.322-1.058,13.84H790.753z"/>
			<path fill="#4EB6A1" d="M867.582,1610.961c-27.62,0-52.294,13.484-68.579,34.632c-8.292-1.941-17.103-2.987-26.236-2.987
				c-49.038,0-88.79,30.142-88.79,67.32c0,3.335,0.322,6.61,0.938,9.814h270.519c0.617-4.518,0.938-9.14,0.938-13.84
				C956.373,1653.466,916.62,1610.961,867.582,1610.961z"/>
		</g>
		<g>
			<g>
				<g>
					<path fill="#3C8F7C" d="M525.413,1519.769c-23.235-35.797-27.572-79.019-27.117-108.979
						c0.494-32.521,6.581-56.869,6.642-57.112l-1.681-0.584c-0.062,0.242-6.198,24.771-6.7,57.51
						c-0.464,30.252,3.921,73.92,27.444,110.158L525.413,1519.769z"/>
				</g>
				<g>
					<path fill="#3C8F7C" d="M510.66,1347.729c-0.571,7.358-3.876,13.532-8.634,17.319c-4.066-5.124-6.347-12.142-5.776-19.5
						c0.571-7.36,3.875-13.531,8.633-17.32C508.949,1333.352,511.23,1340.368,510.66,1347.729z"/>
				</g>
				<g>
					<path fill="#3C8F7C" d="M494.955,1364.716c3.941,6.37,5.163,13.62,3.901,19.913c-6.036-1.419-11.879-5.582-15.821-11.952
						c-3.941-6.369-5.163-13.618-3.9-19.913C485.17,1354.184,491.014,1358.348,494.955,1364.716z"/>
				</g>
				<g>
					<path fill="#3C8F7C" d="M486.058,1384.707c6.121,3.929,10.27,9.99,11.865,16.381c-5.817,1.631-12.639,0.65-18.759-3.276
						c-6.121-3.93-10.27-9.989-11.866-16.381C473.116,1379.798,479.937,1380.778,486.058,1384.707z"/>
				</g>
				<g>
					<path fill="#3C8F7C" d="M488.801,1412.547c4.846,3.12,7.849,8.454,8.668,14.353c-5.05,2.119-10.73,1.861-15.577-1.26
						c-4.846-3.12-7.85-8.454-8.669-14.353C478.274,1409.167,483.956,1409.426,488.801,1412.547z"/>
				</g>
				<g>
					<path fill="#3C8F7C" d="M508.826,1379.562c5.449-2.872,11.545-3.031,16.765-0.959c-1.378,5.554-5.045,10.541-10.493,13.411
						c-5.447,2.873-11.545,3.033-16.764,0.959C499.713,1387.421,503.379,1382.433,508.826,1379.562z"/>
				</g>
				<g>
					<path fill="#3C8F7C" d="M508.223,1398.789c5.447-2.872,11.545-3.032,16.764-0.96c-1.379,5.552-5.045,10.54-10.493,13.412
						s-11.545,3.032-16.764,0.958C499.109,1406.647,502.775,1401.659,508.223,1398.789z"/>
				</g>
				<g>
					<path fill="#3C8F7C" d="M492.309,1443.131c2.88,0.664,5.27,2.583,6.712,5.076c-2.047,1.687-4.82,2.416-7.7,1.752
						c-2.88-0.663-5.27-2.582-6.712-5.075C486.655,1443.195,489.428,1442.467,492.309,1443.131z"/>
				</g>
			</g>
			<g>
				<g>
					<path fill="#3C8F7C" d="M515.833,1545.059c-53.176-12.536-93.733-51.318-118.392-81.646
						c-26.77-32.922-41.11-63.271-41.253-63.574l-2.166,1.093c0.143,0.306,14.585,30.881,41.527,64.027
						c24.896,30.63,65.874,69.807,119.709,82.499L515.833,1545.059z"/>
				</g>
				<g>
					<path fill="#3C8F7C" d="M356.908,1388.203c5.599,7.908,7.478,17.357,5.908,25.877c-8.349-1.059-16.507-5.782-22.106-13.691
						c-5.6-7.907-7.479-17.355-5.91-25.874C343.15,1375.57,351.308,1380.294,356.908,1388.203z"/>
				</g>
				<g>
					<path fill="#3C8F7C" d="M355.487,1420.797c9.269,2.423,16.565,8.434,20.583,15.968c-7.209,4.602-16.526,6.271-25.794,3.849
						c-9.27-2.422-16.565-8.435-20.583-15.968C336.901,1420.045,346.218,1418.374,355.487,1420.797z"/>
				</g>
				<g>
					<path fill="#3C8F7C" d="M363.372,1449.599c9.396-2.183,18.614-0.273,25.563,4.509c-4.432,7.427-12.057,13.247-21.454,15.429
						c-9.396,2.184-18.614,0.275-25.563-4.508C346.35,1457.603,353.975,1451.781,363.372,1449.599z"/>
				</g>
				<g>
					<path fill="#3C8F7C" d="M384.558,1475.791c9.397-2.183,18.614-0.274,25.563,4.507c-4.432,7.428-12.058,13.249-21.454,15.433
						c-9.397,2.181-18.614,0.273-25.563-4.509C367.536,1483.795,375.161,1477.975,384.558,1475.791z"/>
				</g>
				<g>
					<path fill="#3C8F7C" d="M378.222,1432.253c-0.473-8.909,2.498-17.303,7.574-23.344c5.651,4.751,9.471,12.329,9.944,21.239
						s-2.497,17.303-7.574,23.344C382.516,1448.74,378.696,1441.164,378.222,1432.253z"/>
				</g>
				<g>
					<path fill="#3C8F7C" d="M400.316,1459.347c-0.61-8.9,2.232-17.348,7.215-23.479c5.723,4.647,9.658,12.153,10.268,21.055
						c0.61,8.899-2.231,17.345-7.215,23.477C404.862,1475.752,400.927,1468.247,400.316,1459.347z"/>
				</g>
				<g>
					<path fill="#3C8F7C" d="M418.579,1501.629c3.43-2.207,7.42-2.676,10.948-1.627c-0.626,3.723-2.78,7.214-6.209,9.421
						c-3.429,2.21-7.42,2.678-10.948,1.629C412.996,1507.329,415.15,1503.839,418.579,1501.629z"/>
				</g>
			</g>
			<path fill="#3C8F7C" d="M458.298,1717.452c0-9.979,61.142,1.798,66.228-11.805c5.087-13.604-52.365-14.385-52.365-32.781
				c0-18.4,29.279-5.498,46.447-5.498c17.168,0-33.897-7.879-33.897-14.389c0-6.512,17.917-3.098,17.917-10.013
				c0-6.916-94.084-12.13-83.074-29.056c11.01-16.924,61.592,4.93,75.48-3.827c13.889-8.756-74.197-18.308-76.377-31.329
				c-2.18-13.02,64.906,11.16,74.405,1.793c9.499-9.366-106.078-43.027-101.237-67.769c4.843-24.74,87.603,31.686,108.293,25.609
				s-104.331-92.921-75.276-126.762c29.054-33.839,84.521,112.005,103.451,106.795c18.929-5.209-23.706-92.155-4.37-107.28
				c19.337-15.122,71.694,97.373,75.199,125.617c3.504,28.241,13.691-35.714,44.066-46.123c30.375-10.411,0.881,55.131,6.163,75.1
				c5.283,19.967,29.932-51.222,63.17-46.012c33.237,5.21-60.088,70.318-50.844,89.417c9.244,19.097,81.309-63.759,103.891-41.493
				s-86.801,84.06-80.819,100.973c5.982,16.914,71.607-12.072,90.504,6.561c18.896,18.632-70.499,30.467-82.352,30.467
				c-11.854,0-57.155,14.691-12.912,11.805C724.232,1714.563,458.298,1727.432,458.298,1717.452z"/>
			<g>
				<path fill="#4EB6A1" d="M632.581,1728.985c0,0,73.629,3.889,95.066-9.418c21.437-13.309,4.518-23.665,4.518-23.665
					s68.085-1.461,67.914-17.367c-0.171-15.904-16.673-14.989-16.673-14.989s34.365-23.026,27.956-37.382
					c-9.85-22.057-65.825,16.348-65.825,16.348s18.35-21.487,3.523-26.507C708.359,1602.222,632.581,1728.985,632.581,1728.985z"/>
				<path fill="#96D2C5" d="M811.361,1626.164c6.409,14.355-27.957,37.382-27.957,37.382s24.804-0.323,20.777,15.147
					c-4.01,15.405-66.372,20.609-66.372,20.609s21.772,4.197,0.335,17.505c-21.437,13.309-105.565,12.178-105.565,12.178
					L811.361,1626.164z"/>
			</g>
		</g>
		<g>
			<path fill="#3C8F7C" d="M346.696,1662.251c0.461-4.437,0.701-8.974,0.701-13.591c0-51.489-29.704-93.23-66.347-93.23
				c-36.642,0-66.347,41.741-66.347,93.23c0,4.617,0.24,9.154,0.701,13.591H346.696z"/>
			<path fill="#4EB6A1" d="M421.783,1639.339c0.461-6.258,0.701-12.657,0.701-19.168c0-72.614-29.705-131.479-66.347-131.479
				s-66.348,58.865-66.348,131.479c0,6.511,0.241,12.91,0.702,19.168H421.783z"/>
			<path fill="#4EB6A1" d="M397.491,1719.907c-0.461-4.438-0.701-8.975-0.701-13.59c0-51.491,29.705-93.232,66.347-93.232
				s66.347,41.741,66.347,93.232c0,4.615-0.24,9.151-0.701,13.59H397.491z"/>
			<path fill="#3C8F7C" d="M291.307,1719.907c-0.584-6.258-0.889-12.657-0.889-19.167c0-72.615,37.656-131.481,84.108-131.481
				s84.108,58.866,84.108,131.481c0,6.51-0.304,12.909-0.889,19.167H291.307z"/>
			<path fill="#4EB6A1" d="M355.886,1569.259c-23.216,0-43.956,18.675-57.644,47.963c-6.97-2.688-14.376-4.137-22.052-4.137
				c-41.218,0-74.632,41.741-74.632,93.232c0,4.615,0.27,9.151,0.789,13.59h227.383c0.519-6.258,0.789-12.657,0.789-19.167
				C430.518,1628.125,397.104,1569.259,355.886,1569.259z"/>
		</g>
	</g>
	<g>
		<path fill="#F7C9B3" d="M2031.379,1409.009c0,0,17.516,19.798,24.043,31.605c0,0,27.516,25.053,37.635,37.186l-6.111,2.011
			l-29.16-19.024c-4.859-3.171-8.984-7.306-12.107-12.155c-0.834-1.298-1.732-2.729-2.664-4.268c0,0-14.424-6.26-33.943-25.749
			C2009.07,1418.614,2017.58,1405.663,2031.379,1409.009z"/>
		<path fill="#F7C9B3" d="M1962.807,1383.413c0,0-21.656-3.503-33.451-0.485c-2.396,0.613-4.176,2.599-4.564,5.01l-9.4,58.006
			l8.059,3.003l3.43-17.652c0,0,13.961-22.72,7.172-31.296c0,0,19.361,6.28,36.922,7.896l4.611-11.872L1962.807,1383.413z"/>
		<path fill="#F7C9B3" d="M1984.35,1370.388c0,0-3.207,11.183-5.639,16.028l34.492,8.815c0,0-1.236-9.454,2.305-18.963
			L1984.35,1370.388z"/>
		<path fill="#56BFD4" d="M1987.564,1338.202c0,0-3.852,6.39-0.529,12.512l-2.686,19.674l31.158,5.881l12.604-29.553l7.311-15.399
			c0.322-1.654-9.023-2.553-10.707-2.813l-31.221-5.209L1987.564,1338.202z"/>
		<g>
			<path fill="#F67E5D" d="M2021.078,1302.212c0,0,15.709-17.662,34.785-16.016c16.342,1.409,13.557,23.194-2.307,24.687
				c-4.332,0.406-8.602-1.098-11.998-3.784c-4.541-3.594-13.33-8.692-19.203-0.348L2021.078,1302.212z"/>
			<path fill="#131C21" d="M2030.539,1304.504c0.645,0.166,1.314-0.042,1.59-0.528c2.701-4.761-0.799-8.65-3.031-10.042
				c-0.648-0.404-1.535-0.337-1.967,0.159c-0.43,0.494-0.254,1.222,0.395,1.631l0,0c0.182,0.115,4.402,2.873,2.006,7.098
				c-0.316,0.557,0.01,1.265,0.729,1.586C2030.352,1304.447,2030.443,1304.479,2030.539,1304.504z"/>
			<g>
				<path fill="#F77255" d="M1997.344,1299.042c0.939,7.854,7.26,16.436,13.701,15.686c6.438-0.748,10.898-7.722,9.959-15.575
					c-0.938-7.855-6.922-13.614-13.361-12.864C2001.201,1287.037,1996.406,1291.188,1997.344,1299.042z"/>
				<path fill="#F7C9B3" d="M2008.166,1329.95L2008.166,1329.95c3.367,0.619,7.014,1.831,7.641-1.489l4.16-22.049l-12.131-2.226
					l-4.363,23.111C2002.957,1330.031,2005.395,1329.442,2008.166,1329.95z"/>
				<path fill="#F7C9B3" d="M1999.514,1299.821c-1.352,7.178,3.451,14.081,10.73,15.417c7.283,1.335,14.283-3.401,15.639-10.58
					c1.354-7.18-3.449-14.08-10.732-15.418C2007.871,1287.905,2000.869,1292.644,1999.514,1299.821z"/>
				<path fill="#F7C9B3" d="M2005.203,1316.806L2005.203,1316.806c3.455,0.634,6.727-1.33,7.303-4.384l1.506-7.974l-14.498-4.627
					l-1.473,7.813C1997.25,1311.827,2000.457,1315.937,2005.203,1316.806z"/>
				<path fill="#F7C9B3" d="M1999.709,1301.442l-3.668,3.654c-0.535,0.606-0.164,1.541,0.678,1.695l3.219,1.234L1999.709,1301.442z"
					/>
				<g>
					<defs>
						<path id="SVGID_1_" d="M1999.514,1299.821c-1.352,7.178,3.451,14.081,10.73,15.417c7.283,1.335,14.283-3.401,15.639-10.58
							c1.354-7.18-3.449-14.08-10.732-15.418C2007.871,1287.905,2000.869,1292.644,1999.514,1299.821z"/>
					</defs>
					<clipPath id="SVGID_2_">
						<use xlink:href="#SVGID_1_"  overflow="visible"/>
					</clipPath>
				</g>
				<path fill="#F7C8A6" d="M2009.609,1307.495c-0.371,1.974,0.949,3.872,2.949,4.238c2.002,0.365,3.926-0.936,4.297-2.909
					c0.373-1.972-0.947-3.868-2.949-4.235C2011.906,1304.222,2009.982,1305.523,2009.609,1307.495z"/>
				<path fill="#F67E5D" d="M2004.406,1293.725c-1.465,7.774,3.943,20.746,11.828,22.194c7.885,1.445,13.311-5.426,14.777-13.2
					c1.467-7.773-3.736-15.25-11.621-16.696S2005.875,1285.95,2004.406,1293.725z"/>
			</g>
			<path fill="#F7BAA6" d="M2005.203,1316.806c0,0,3.285,0.902,6.313-0.588l-6.932,5.751L2005.203,1316.806z"/>
		</g>
		<path fill="#F7C9B3" d="M1998.99,1324.151c0.652-0.085,25.725,4.352,25.725,4.352s-6.363,13.167-18.893,9.927
			C1993.695,1335.292,1998.99,1324.151,1998.99,1324.151z"/>
		<g>
			<path fill="#F7C9B3" d="M1995.92,1323.783c0,0-7.695-4.483-19.326-3.647l-58.404-10.438l1.533,5.065l31.41,10.319
				c0.805,0.271,1.619,0.504,2.443,0.704l31.391,7.65l2.383,4.726C1987.35,1338.162,1995.227,1330.978,1995.92,1323.783z"/>
			<path fill="#F7C9B3" d="M1918.189,1309.697l-23.154-4.372l-0.129,0.665c-0.188,0.968,0.42,1.913,1.389,2.161l8.291,2.097
				c0,0,1.072,4.262,15.137,4.515L1918.189,1309.697z"/>
		</g>
		<g>
			<g>
				<path fill="#F7C9B3" d="M2027.51,1329.837c0,0,4.602-4,19.326,3.649l64.574,12.774l-3.322,4.151l-39.445-3.058
					c-0.848-0.044-1.693-0.121-2.535-0.234l-32.039-4.322l-9.959,4.276C2024.109,1347.074,2025.457,1336.774,2027.51,1329.837z"/>
				<path fill="#F7C9B3" d="M2111.41,1346.261l23.152,4.37l-0.129,0.668c-0.186,0.967-1.105,1.625-2.098,1.5l-8.492-1.069
					c0,0-2.59,3.57-15.756-1.317L2111.41,1346.261z"/>
			</g>
			<path fill="#F7C9B3" d="M2027.51,1329.837c0,0-7.211,9.304-4.852,17.766c0.205,0.737,1.279,0.858,1.977,0.527
				c2.457-1.17,8.32-4.177,10.318-7.111C2041.363,1331.613,2027.51,1329.837,2027.51,1329.837z"/>
		</g>
		<path fill="#10293F" d="M1980.896,1381.104l32.402,7.098l18.08,20.808l-22.309,9.605l-14.766-9.011l-23.332-1.709
			c0,0-0.189-18.23-8.166-24.481l15.904,3.003L1980.896,1381.104z"/>
		<path fill="#F7C9B3" d="M1915.391,1445.943l-11.027,5.182l-8.723,0.006c-0.801,0.001-1.49,0.563-1.641,1.339l0,0
			c-0.172,0.896,0.42,1.759,1.328,1.929l11.662,2.202l11.816,2.231c1.744,0.328,3.408-0.853,3.645-2.586l0.998-7.3
			L1915.391,1445.943z"/>
		<path fill="#F7C9B3" d="M2086.945,1479.811l-1.848,9.517c-0.094,0.479,0.227,0.939,0.707,1.03l18.205,3.437
			c0.723,0.136,1.295-0.594,0.969-1.244c-1.424-2.865-7.863-9.718-11.922-14.75L2086.945,1479.811z"/>
	</g>
	<g>
		<g>
			<path fill="#C58457" d="M628.465,1370.772c0,0,44.807,29.652,88.371,102.996c2.945,4.955,3.367,10.996,1.275,16.361
				l-80.486,206.134l-29.368-5.283l24.087-101.401c0,0-13.059-62.787,29.895-101.791c0,0-67.884-44.876-90.169-68.684
				L628.465,1370.772z"/>
			<path fill="#F6C876" d="M600.387,1339.402l41.509,36.789c0,0-47.688,69.472-51.67,66.061
				c-3.976-3.42-29.674-10.557-29.674-10.557L600.387,1339.402z"/>
			<path fill="#C58457" d="M572.07,1419.104c0,0-30.715,75.052-87.958,133.323l-208.615,53.614l-3.674-33.08l75.449-30.466
				c0,0,18.794-39.685,103.556-33.568c0,0,39.596-107.952,68.105-126.224L572.07,1419.104z"/>
			<path fill="#F86C76" d="M605.464,1682.695c0.862-2.108,3.404-2.886,5.06-1.511c3.257,2.695,7.697,9.216,16.601,8.403
				c9.252-0.841,14.44-6.911,15.872-10.439c0.752-1.854,2.761-2.813,4.481-2.017l57.417,25.699c3.344,1.546,5.895,4.433,7.092,8.031
				l0,0c1.119,3.375-1.5,7.002-4.991,6.921l-99.179-2.659c-3.798-0.09-6.601-3.465-6.138-7.391l2.427-21.365
				c0.036-0.317,0.119-0.634,0.239-0.941L605.464,1682.695z"/>
			<g>
				<path fill="#C58457" d="M428.727,1301.338l21.747,6.261c7.836-20.19,15.212-40.525,22.4-60.896
					c7.33-20.326,14.289-35.531,21.188-55.895l2.265-6.611l0.087-0.027l7.413-2.785l35.816-11.209l30.523-11.596
					c10.133-3.981,20.303-7.934,30.33-12.147l-18.481-34.511c-20.844,6.783-41.284,14.481-61.78,22.225
					c-10.192,4.044-20.403,7.979-30.615,12.339l-7.77,3.32l-4.11,1.826l-2.266,1.05l-0.564,0.263l-0.545,0.271
					c-0.579,0.288-1.161,0.614-1.734,0.968c-2.304,1.411-4.478,3.329-6.133,5.4c-0.418,0.515-0.803,1.039-1.165,1.563
					c-0.313,0.471-0.266,0.507-0.418,0.789l-0.586,1.338c-0.385,0.903-0.734,1.817-1.051,2.741c-0.407,1.202-0.311,1.021-0.463,1.51
					l-0.285,1.022l-1.137,4.053l-2.143,7.896c-5.651,20.94-11.018,36.571-16.032,57.612
					C438.075,1259.095,433.158,1280.145,428.727,1301.338z M498.429,1178.228c-0.014,0.054-0.047,0.098-0.065,0.143
					C498.456,1178.118,498.552,1177.838,498.429,1178.228z"/>
				<path fill="#C58457" d="M471.195,1330.103c-8.537,12.23-25.514,15.315-37.913,6.903c-12.405-8.423-15.538-25.155-6.996-37.387
					c8.537-12.23,25.514-15.313,37.913-6.901C476.603,1301.14,479.73,1317.874,471.195,1330.103z"/>
			</g>
			<g>
				<g>
					<path fill="#C58457" d="M614.359,1121.573L614.359,1121.573c-11.729-2.107-25.775,6.577-23.638-4.984l15.949-77.839
						l39.721,8.686l-13.422,74.662C631.208,1131.623,624.024,1123.311,614.359,1121.573z"/>
					<path fill="#C58457" d="M678.956,1043.41c-4.623,25.011-28.94,41.592-54.312,37.032c-25.372-4.558-42.188-28.539-37.56-53.549
						c4.625-25.012,28.94-41.602,54.313-37.035C666.768,994.419,683.583,1018.39,678.956,1043.41z"/>
					<path fill="#C58457" d="M638.524,1094.699L638.524,1094.699c-12.046-2.162-20.125-13.026-18.045-24.271l5.422-29.326
						l53.055,2.308l-5.313,28.728C670.791,1087.571,655.066,1097.675,638.524,1094.699z"/>
					<path fill="#C58457" d="M676.286,1048.439l7.334,16.382c0.982,2.633-1.403,5.22-4.33,4.695l-12.032,0.071L676.286,1048.439z"/>
					<g>
						<defs>
							<path id="SVGID_3_" d="M678.956,1043.41c-4.623,25.011-28.94,41.592-54.312,37.032c-25.372-4.558-42.188-28.539-37.56-53.549
								c4.625-25.012,28.94-41.602,54.313-37.035C666.768,994.419,683.583,1018.39,678.956,1043.41z"/>
						</defs>
						<use xlink:href="#SVGID_3_"  overflow="visible" fill="#C58457"/>
						<clipPath id="SVGID_4_">
							<use xlink:href="#SVGID_3_"  overflow="visible"/>
						</clipPath>
					</g>
				</g>
				<path fill="#AF7045" d="M637.965,1094.59c0,0-10.986-2.713-18.683-12.518c0,0-0.835,10.592,16.669,23.545L637.965,1094.59z"/>
			</g>
			<path fill="#C58457" d="M591.382,1107.38c0,0-39.303,5.988-45.83,49.934c-6.528,43.953,19.476,58.679,8.311,93.458
				c-11.17,34.773-26.39,45.989-26.39,45.989l83.358,41.422c0,0,17.32-35.125,25.715-87.363c0,0,39.22-42.887,30.651-73.876
				c-8.569-30.991-45.693-67.534-45.693-67.534L591.382,1107.38z"/>
			<g>
				<defs>
					<path id="SVGID_5_" d="M591.382,1107.38c0,0-39.303,5.988-45.83,49.934c-6.528,43.953,19.476,58.679,8.311,93.458
						c-11.17,34.773-26.39,45.989-26.39,45.989l83.358,41.422c0,0,17.32-35.125,25.715-87.363c0,0,39.22-42.887,30.651-73.876
						c-8.569-30.991-45.693-67.534-45.693-67.534L591.382,1107.38z"/>
				</defs>
				<clipPath id="SVGID_6_">
					<use xlink:href="#SVGID_5_"  overflow="visible"/>
				</clipPath>
				<path clip-path="url(#SVGID_6_)" fill="#F86C76" d="M639.336,1129.326c0,0-36.857,5.536-22.596,45.744
					c11.816,33.323,54.453,23.174,62.89,20.008l-31.918,57.621l-9.29,17.423c0,0-57.885,1.157-89.595-29.354l-15.955-47.535
					l12.813-79.98l40.595-11.463l1.5,7.454c0,0-29.105,20.651-16.331,29.76c12.771,9.118,30.391-3.12,36.877-6.901
					c10.655-6.205,22.898-11.679,32.541-10.085L639.336,1129.326z"/>
				<path clip-path="url(#SVGID_6_)" fill="#F48C99" d="M636.547,1250.819c0,0-50.523,5.363-85.628-28.062l4.225,23.429
					c0,0,21.605,23.085,83.279,23.936L636.547,1250.819z"/>
			</g>
			<path fill="#C58457" d="M843.033,1161.438c-2.226,14.68-16.101,24.803-30.991,22.614c-14.89-2.189-25.16-15.875-22.94-30.557
				c2.225-14.683,16.101-24.804,30.99-22.615C834.983,1133.07,845.253,1146.747,843.033,1161.438z"/>
			<path fill="#C58457" d="M653.721,1135.089l73.404,73.784l81.412-51.805l15.162,20.77l-87.753,69.235
				c-6.513,5.147-16.032,5.122-22.532-0.489l-0.697-0.596l-86.266-75.858c-7.958-6.855-9.257-23.853-2.996-32.247l0,0
				C630.667,1128.214,644.813,1126.91,653.721,1135.089z"/>
			<path fill="#F7D681" d="M613.946,1331.226c0,0-33.765-38.056-80.508-40.507c0,0-70.684,39.882-39.964,97.512l-11.087,24.858
				c0,0,43.665,18.027,60.895,2.271c0,0-5.547,22.026,22.124,35.377C565.406,1450.736,605.148,1392.564,613.946,1331.226z"/>
			
				<path fill="none" stroke="#F6C162" stroke-width="0.7267" stroke-linecap="round" stroke-linejoin="round" stroke-miterlimit="10" d="
				M587.717,1343.554c0,0-4.976,16.682,4.858,32.963"/>
			
				<path fill="none" stroke="#F6C162" stroke-width="0.7267" stroke-linecap="round" stroke-linejoin="round" stroke-miterlimit="10" d="
				M577.997,1314.916c0,0-28.174,43.689-34.679,100.443"/>
			<path fill="#F6C162" d="M613.946,1331.226c0,0-30.605-36.979-80.508-40.507c0,0-14.35,8.466-16.266,11.696
				c0,0,54.183,0.009,93.375,46.657C610.547,1349.072,613.465,1335.594,613.946,1331.226z"/>
			<path fill="#F86C76" d="M281.905,1564.151c2.129,0.867,2.904,3.375,1.496,5.002c-2.757,3.193-9.399,7.525-8.638,16.31
				c0.785,9.127,6.908,14.282,10.477,15.722c1.876,0.75,2.826,2.74,2.009,4.432l-26.472,56.437c-1.587,3.282-4.537,5.78-8.188,6.928
				l0,0c-3.431,1.085-7.092-1.526-6.982-4.973l3.391-97.759c0.119-3.743,3.563-6.484,7.545-6.006l21.647,2.543
				c0.326,0.045,0.642,0.127,0.95,0.244L281.905,1564.151z"/>
		</g>
		<g>
			<defs>
				<path id="SVGID_7_" d="M678.956,1043.41c-4.623,25.011-28.94,41.592-54.312,37.032c-25.372-4.558-42.188-28.539-37.56-53.549
					c4.625-25.012,28.94-41.602,54.313-37.035C666.768,994.419,683.583,1018.39,678.956,1043.41z"/>
			</defs>
			<clipPath id="SVGID_8_">
				<use xlink:href="#SVGID_7_"  overflow="visible"/>
			</clipPath>
			<path clip-path="url(#SVGID_8_)" fill="#0D0935" d="M628.644,1053.767l14.922,0.011l1.706-33.009l33.708-16.381
				c0,0-81.381-62.959-102.519,30.726c-21.132,93.696,20.014,31.282,20.014,31.282l9.28,14.789L628.644,1053.767z"/>
		</g>
		<path fill="#C58457" d="M636.451,1056.028c-1.271,6.875-7.954,11.435-14.921,10.177c-6.973-1.248-11.597-7.843-10.326-14.717
			c1.276-6.867,7.954-11.426,14.927-10.177C633.102,1042.569,637.722,1049.154,636.451,1056.028z"/>
		<path fill="#0D0935" d="M618.9,1065.437c0,0-2.678,35.233-31.119,43.808c0,0-6.207-0.054-17.252,6.794l-38.354,13.605
			C532.175,1129.644,511.382,1078.697,618.9,1065.437z"/>
		<path fill="#F7D681" d="M597.171,1065.599c32.408-24.785,70.921-40.985,80.885-44.956c1.362-0.544,2.018-2.063,1.496-3.42
			l-4.872-12.7c-0.537-1.401-2.11-2.108-3.519-1.546c-10.527,4.141-50.903,20.978-85.862,47.76c-1.197,0.914-1.399,2.634-0.458,3.8
			l8.569,10.63C594.327,1066.314,596.001,1066.494,597.171,1065.599z"/>
	</g>
	<g>
		<g>
			<g>
				<path fill="#F7C8A6" d="M1199.208,1373.521c0,0-10.383,25.604,10.688,46.708c22.025,22.059,52.399,42.394,52.399,42.394
					l36.833,89.768l15.342-0.852l-28.167-101.205c-0.333-1.594-1.097-3.074-2.209-4.281l-46.105-55.801l0.222-10.171
					L1199.208,1373.521z"/>
				<path fill="#F7C8A6" d="M1261.696,1452.489c0,0-15.238,18.756,20.462,57.777L1261.696,1452.489z"/>
				<polygon fill="#F4E0D3" points="1314.257,1549.521 1302.416,1508.231 1284.424,1516.556 1300.354,1555.88 				"/>
				<path fill="#131C21" d="M1295.733,1549.595c0.193-0.993,1.299-1.537,2.206-1.063c1.78,0.928,3.245,3.522,7.31,2.459
					c4.22-1.104,6.037-4.183,6.355-5.846c0.167-0.876,1.008-1.453,1.885-1.244l29.245,6.747c1.708,0.414,3.178,1.48,4.087,2.962l0,0
					c0.855,1.397-0.007,3.201-1.642,3.438l-45.159,6.615c-1.778,0.261-3.412-1.002-3.584-2.763l-0.974-9.582
					c-0.014-0.145-0.007-0.289,0.022-0.43L1295.733,1549.595z"/>
			</g>
			<path fill="#F7C8A6" d="M1211.844,1333.046l-29.981,93.868l-111.956-8.922l-4.423,16.688l121.531,22.066
				c7.378,1.343,14.886-1.486,19.415-7.383c12.343-16.063,35.638-50.658,41.506-89.377L1211.844,1333.046z"/>
			<path fill="#F7C8A6" d="M1189.612,1429.839c0,0-37.37-16.515-78.637-7.295L1189.612,1429.839z"/>
			<polygon fill="#F4E0D3" points="1068.824,1417.559 1115.091,1421.793 1114.422,1443.567 1065.484,1434.681 			"/>
			<path fill="#131C21" d="M1073.352,1414.629c1.156,0.777,1.288,2.375,0.237,3.178c-2.061,1.564-6.067,1.84-6.764,7.192
				c-0.723,5.558,2.251,9.401,4.188,10.7c1.021,0.682,1.329,1.99,0.62,2.899l-23.156,30.509c-1.377,1.77-3.459,2.896-5.786,3.14l0,0
				c-2.188,0.225-4.028-1.788-3.512-3.839l14.288-56.589c0.562-2.227,2.972-3.441,5.282-2.66l12.568,4.192
				c0.189,0.061,0.369,0.149,0.534,0.262L1073.352,1414.629z"/>
			<path fill="#194F89" d="M1234.973,1363.989c2.537,11.441,21.703,40.418,21.703,40.418l-35.708,24.082L1234.973,1363.989z"/>
			<path fill="#18589A" d="M1193.364,1346.469c0,0-22.52,15.968-6.124,43.702l-5.328,22.389l40.317,20.792
				c0,0,25.508-41.421,26.96-78.103C1249.189,1355.249,1225.462,1332.254,1193.364,1346.469z"/>
			<path fill="#F7C8A6" d="M1213.059,1244.565l-32.172-9.314c0,0-25.259-20.228-56.921-28.548l3.572,13.269l47.713,31.734
				l43.438,19.808L1213.059,1244.565z"/>
			<polygon fill="#C7C7D3" points="1242.703,1246.778 1210.037,1240.889 1204.842,1270.006 1221.526,1275.073 			"/>
			<g>
				<path fill="#F7C8A6" d="M1250.092,1264.508l-1.247-1.439c-4.135-4.775-3.558-11.949,1.285-16.025l26.684-22.585l17.366,20.064
					l-28.587,23.094C1261.603,1270.97,1253.497,1268.444,1250.092,1264.508z"/>
				<path fill="#F8BD99" d="M1269.899,1244.226c0,0-9.102,8.449-1.639,21.27l6.237-5.045L1269.899,1244.226z"/>
				<path fill="#F7C8A6" d="M1307.15,1241.066c-8.195,10.91-23.811,13.206-34.879,5.128c-11.07-8.076-13.4-23.474-5.204-34.39
					c8.192-10.914,23.809-13.212,34.879-5.129C1313.014,1214.754,1315.343,1230.151,1307.15,1241.066z"/>
				<path fill="#F7C8A6" d="M1273.065,1259.52L1273.065,1259.52c-5.256-3.839-6.362-11.149-2.472-16.329l14.209-18.925
					l22.582,16.484l-11.578,15.424C1290.462,1263.288,1280.282,1264.783,1273.065,1259.52z"/>
				<path fill="#F7C8A6" d="M1303.252,1245.054l-0.399,9.55c-0.155,1.491-1.919,2.177-3.196,1.243l-5.783-2.756L1303.252,1245.054z"
					/>
				<g>
					<defs>
						<path id="SVGID_9_" d="M1307.15,1241.066c-8.195,10.91-23.811,13.206-34.879,5.128c-11.07-8.076-13.4-23.474-5.204-34.39
							c8.192-10.914,23.809-13.212,34.879-5.129C1313.014,1214.754,1315.343,1230.151,1307.15,1241.066z"/>
					</defs>
					<clipPath id="SVGID_10_">
						<use xlink:href="#SVGID_9_"  overflow="visible"/>
					</clipPath>
					<path clip-path="url(#SVGID_10_)" fill="#82635A" d="M1282.624,1236.473c0,0,11.19-1.491,15.046-14.298
						c0,0,13.164,12.117,19.937,9.49c0,0,6.107-33.044-25.142-37.396c-31.25-4.346-39.85,28.208-39.85,28.208l14.496,18.654
						L1282.624,1236.473z"/>
				</g>
				<path fill="#F7C8A6" d="M1283.762,1237.237c-2.251,2.999-6.542,3.633-9.584,1.411c-3.041-2.218-3.681-6.453-1.43-9.448
					c2.253-3,6.542-3.635,9.585-1.412C1285.374,1230.011,1286.014,1234.24,1283.762,1237.237z"/>
				<path fill="#82635A" d="M1265.753,1228.874l-6.601,9.76c0,0,8.625,9.854,15.66,0.479l-6.969-3.382L1265.753,1228.874z"/>
			</g>
			<path fill="#F7C8A6" d="M1294.66,1389.323c0.991,7.3-4.207,14.008-11.611,14.987c-7.403,0.978-14.21-4.146-15.2-11.446
				c-0.993-7.301,4.205-14.014,11.609-14.991C1286.861,1376.898,1293.668,1382.021,1294.66,1389.323z"/>
			<path fill="#F7C8A6" d="M1128.495,1213.566c0.993,7.299-4.206,14.008-11.608,14.986c-7.404,0.978-14.21-4.146-15.203-11.446
				c-0.992-7.3,4.205-14.014,11.609-14.986C1120.696,1201.142,1127.502,1206.265,1128.495,1213.566z"/>
			<path fill="#DCDBE1" d="M1250.13,1247.043c0,0-11.05-7.398-22.663,3.378c-11.613,10.779-28.836,40.996-34.104,96.048
				c0,0,33.617-0.062,55.826,8.78l9.517-40.34c0,0,22.233-34.194,6.173-56.858
				C1264.879,1258.051,1258.299,1249.484,1250.13,1247.043z"/>
			<path fill="#F7C8A6" d="M1241.541,1301.786l4.695,30.464c0.157,0.997,0.516,1.957,1.054,2.813l33.2,52.68l11.377-3.679
				l-25.979-54.325l-1.385-37.061L1241.541,1301.786z"/>
			<path fill="#DCDBE1" d="M1248.422,1263.167c0,0-21.118,8.338-10.431,46.539l33.2-3.424
				C1271.191,1306.282,1273.75,1261.293,1248.422,1263.167z"/>
			<path fill="#DCDBE1" d="M1373.352,1548.48c-1.957,17.844-18.212,30.738-36.307,28.81c-18.093-1.928-31.178-17.959-29.219-35.797
				c1.959-17.844,18.212-30.742,36.31-28.809C1362.229,1514.613,1375.309,1530.638,1373.352,1548.48z"/>
		</g>
		
			<path fill="none" stroke="#C7C7D3" stroke-width="0.7577" stroke-linecap="round" stroke-linejoin="round" stroke-miterlimit="10" d="
			M1269.403,1285.872c0,0-1.337-10.18-5.396-14.894c0,0-11.648-15.603-24.446,0.535c-11.779,14.853-1.569,38.192-1.569,38.192
			l4.711-0.484"/>
	</g>
	<g>
		<path fill="#B06437" d="M2485.939,1224.982c0,0-10.512-22.849-26.244-9.991c-15.734,12.858-18.9,8.074-18.9,8.074
			s11.725,17.379,27.088,3.172c0,0,8.764-9.877,16.961,2.153L2485.939,1224.982z"/>
		<g>
			<polygon fill="#F4B189" points="2477.137,1263.689 2458.689,1284.077 2461.473,1301.583 2483.631,1277.363 			"/>
			<path fill="#F8BD99" d="M2461.844,1254.115c0,0,6.57,28.288-0.371,47.468c0,0-9.297,6.069-11.965-3.261s4.924-19.501,7.047-45.28
				L2461.844,1254.115z"/>
			<path fill="#F8BD99" d="M2476.74,1357.252c0,0-36.006,15.369-54.947,14.114c-0.457-0.03-0.896-0.116-1.334-0.25l-48.311-39.268
				l2.555-10.188l19.193,13.163c0,0,22.463,5.881,27.875,19.022c0,0,33.496-18.453,40.574-13.589L2476.74,1357.252z"/>
			<g>
				<polygon fill="#413030" points="2449.928,1225.886 2456.531,1249.712 2463.25,1247.425 2453.604,1225.302 				"/>
				<path fill="#413030" d="M2451.09,1230.076l-10.465-13.128c9.082,7.118,16.885,6.396,16.885,6.396l-2.477,5.23L2451.09,1230.076z
					"/>
				<path fill="#413030" d="M2456.137,1223.75c-1.801,0.286-4.141-0.144-6.861-1.288c-4.094-1.724-8.67-4.88-12.879-8.887
					c-4.211-4.009-7.572-8.403-9.463-12.378c-2.004-4.21-2.129-7.526-0.355-9.339c1.775-1.813,5.143-1.806,9.48,0.019
					c4.094,1.724,8.668,4.88,12.879,8.886l0,0c4.213,4.009,7.572,8.402,9.463,12.376c2.004,4.212,2.129,7.526,0.354,9.341
					C2458.094,1223.155,2457.209,1223.577,2456.137,1223.75z M2429.471,1192.166c-0.727,0.114-1.307,0.383-1.721,0.808
					c-1.256,1.279-1.016,4.031,0.656,7.543c1.809,3.802,5.049,8.027,9.119,11.903s8.469,6.917,12.387,8.566
					c3.621,1.524,6.416,1.661,7.672,0.38c1.254-1.281,1.016-4.032-0.656-7.545c-1.811-3.801-5.047-8.026-9.119-11.903l0,0
					c-4.072-3.875-8.473-6.917-12.389-8.566C2432.996,1192.331,2430.939,1191.931,2429.471,1192.166z"/>
				
					<line fill="none" stroke="#413030" stroke-width="0.7914" stroke-miterlimit="10" x1="2428.482" y1="1201.894" x2="2458.807" y2="1220.196"/>
				
					<line fill="none" stroke="#413030" stroke-width="0.7914" stroke-miterlimit="10" x1="2426.586" y1="1196.484" x2="2458.369" y2="1215.01"/>
				
					<line fill="none" stroke="#413030" stroke-width="0.7914" stroke-miterlimit="10" x1="2426.951" y1="1192.513" x2="2454.527" y2="1208.434"/>
				
					<line fill="none" stroke="#413030" stroke-width="0.7914" stroke-miterlimit="10" x1="2429.08" y1="1191.365" x2="2440.344" y2="1216.304"/>
				
					<line fill="none" stroke="#413030" stroke-width="0.7914" stroke-miterlimit="10" x1="2440.75" y1="1195.804" x2="2453.064" y2="1223.064"/>
				
					<line fill="none" stroke="#413030" stroke-width="0.7914" stroke-miterlimit="10" x1="2447.914" y1="1200.968" x2="2457.574" y2="1222.349"/>
				
					<line fill="none" stroke="#413030" stroke-width="0.7914" stroke-miterlimit="10" x1="2433.92" y1="1191.542" x2="2447.232" y2="1221.013"/>
			</g>
			<path fill="#F48E55" d="M2477.137,1263.689c0,0-3.818,14.896-5.127,47.847l24.266,6.507c0,0,8.963-19.804,13.324-26.454
				c3.984-6.07,11.186-13.01,8.969-31.595l-25.541,8.771L2477.137,1263.689z"/>
			<g>
				<path fill="#F7C8A6" d="M2497.713,1267.266L2497.713,1267.266c-4.107,0.073-7.498-3.153-7.57-7.204l-0.457-16.8l14.881-0.261
					l0.455,16.8C2505.096,1263.853,2501.824,1267.193,2497.713,1267.266z"/>
				<path fill="#F8BD99" d="M2488.877,1250.524c0,0,2.746,7.051,10.555,5.898c6.836-1.013,5.055-8.135,5.055-8.135
					L2488.877,1250.524z"/>
				<path fill="#F7C8A6" d="M2499.184,1253.871l-1.881,0.15c-7.244,0.582-13.594-4.735-14.186-11.88l-0.629-7.607
					c-0.592-7.142,4.805-13.404,12.047-13.986l1.883-0.151c7.244-0.581,13.594,4.738,14.184,11.879l0.629,7.61
					C2511.82,1247.027,2506.426,1253.289,2499.184,1253.871z"/>
				<path fill="#F7C8A6" d="M2487.264,1240.974c0.213,2.588-1.742,4.857-4.369,5.069c-2.625,0.211-4.928-1.716-5.143-4.307
					c-0.213-2.588,1.744-4.857,4.369-5.069C2484.746,1236.458,2487.049,1238.385,2487.264,1240.974z"/>
			</g>
			<path fill="#F7C8A6" d="M2468.299,1248.713c-0.898,5.052-5.783,8.427-10.904,7.537c-5.121-0.888-8.545-5.699-7.645-10.75
				c0.902-5.052,5.783-8.424,10.904-7.538C2465.775,1238.85,2469.199,1243.664,2468.299,1248.713z"/>
			<path fill="#F7C8A6" d="M2477.744,1325.493c0,0,11.975,34.094,13.674,53.844c0.039,0.477,0.018,0.945-0.055,1.416l-11.367,75.135
				l-11.227-1.009l3.49-35.087c0,0-5.656-20.788,1.857-36.714c0,0-26.59-37.799-22.557-45.882L2477.744,1325.493z"/>
			<path fill="#131C21" d="M2468.375,1451.837c0.238-0.749,1.094-1.083,1.701-0.653c1.193,0.843,2.898,2.971,5.945,2.458
				c3.16-0.533,4.785-2.761,5.182-4.013c0.209-0.659,0.875-1.041,1.49-0.812l20.467,7.34c1.193,0.445,2.15,1.372,2.658,2.578l0,0
				c0.48,1.132-0.326,2.451-1.531,2.513l-35.428,1.583c-1.311,0.067-2.367-1.021-2.313-2.385l1.459-7.308
				c0.004-0.112,0.021-0.223,0.059-0.33L2468.375,1451.837z"/>
			<path fill="#131C21" d="M2380.246,1322.758c0.426,0.665,0.133,1.524-0.592,1.705c-1.424,0.354-4.174,0.264-5.742,2.89
				c-1.629,2.725-0.951,5.384-0.238,6.492c0.377,0.583,0.24,1.33-0.332,1.645l-18.9,10.674c-1.113,0.613-2.449,0.734-3.713,0.337
				l0,0c-1.186-0.371-1.688-1.826-0.957-2.774l21.645-27.699c0.793-1.03,2.32-1.122,3.344-0.201l4.717,5.818
				c0.084,0.072,0.158,0.159,0.219,0.255L2380.246,1322.758z"/>
			<path fill="#F7C8A6" d="M2522.275,1258.659c1.457,3.779-0.645,7.984-4.572,9.145l-21.332,5.807l-0.365,0.105
				c-1.408,0.416-2.865,0.212-4.055-0.437l-31.229-17.214l5.311-9.254l31.051,17.521l-4.418-0.331l20.029-9.182
				C2516.412,1253.116,2520.818,1254.88,2522.275,1258.659L2522.275,1258.659z"/>
			<path fill="#F48E55" d="M2472.01,1311.536c0,0-25.068,12.592-30.113,32.814l46.693,16.023c0,0,3.951-21.714,7.686-42.331
				L2472.01,1311.536z"/>
		</g>
		<path fill="#B06437" d="M2488.498,1230.82l-3.408,8.073c-0.393,0.931-1.779,0.769-1.939-0.229l-0.662-4.131L2488.498,1230.82z"/>
		<path fill="#B06437" d="M2481.957,1230.739L2481.957,1230.739c0,0-0.592-10.793,12.121-12.256
			c15.572-1.789,15.975,9.117,15.975,9.117L2481.957,1230.739z"/>
		<path fill="#F7F7F7" d="M2481.203,1235.835l-0.191-5.19c-0.008-0.175,0.049-0.338,0.166-0.472
			c1.385-1.564,10.088-10.956,29.311-4.366c0.234,0.081,0.418,0.28,0.469,0.521l1.18,5.59c0.109,0.521-0.393,0.95-0.908,0.789
			c-13.85-4.333-25.521,1.616-28.955,3.687C2481.814,1236.67,2481.223,1236.364,2481.203,1235.835z"/>
	</g>
	<g>
		<polygon fill="#172C32" points="2908.285,1326.897 2878.961,1451.9 2807.234,1310.669 		"/>
		<path fill="#B37247" d="M2879.666,1412.244l-14.846,25.813c-3.119,5.431-7.467,10.07-12.707,13.571l-220.82,147.327
			l-26.576-27.455l92.33-72.224c0,0,34.533-79.738,95.348-74.437l15.783-77.387L2879.666,1412.244z"/>
		<path fill="#131C21" d="M2641.043,1582.013l-10.832-11.191c0,0,2.584-19.751-5.803-23.071
			c-8.379-3.321-41.834,24.103-41.834,24.103s36.309,86.049,105.301,103.653c0,0,11.809-4.998,2.73-21.93
			c-8.576-15.999-34.166-32.357-20.188-68.815c1.451-3.786,2.729-11.179-1.254-12.159
			C2660.256,1570.407,2645.949,1569.2,2641.043,1582.013z"/>
		<path fill="#172C32" d="M2785.223,1435.646c0,0,3.791,15.011,53.666-5.571c43.742-18.054,53.248-21.699,52.557-37.521
			c-0.689-15.822-77.527-16.598-77.527-16.598L2785.223,1435.646z"/>
		<path fill="#C58457" d="M2882.115,1387.953l8.689,28.411c1.828,5.973,2.229,12.281,1.174,18.436l-44.383,259.215h-38.49
			l10.768-115.72c0,0-34.65-79.689,11.229-119.4l-45.879-64.692L2882.115,1387.953z"/>
		<path fill="#233F47" d="M2777.02,1267.628c0,0-39.623,32.478-24.367,83.214c15.248,50.735,32.57,84.804,32.57,84.804
			s37.588-55.124,106.223-43.092l-30.506-87.221L2777.02,1267.628z"/>
		<path fill="#C58457" d="M2925.291,1090.296c0,0-12.713-20.727-66.094-21.531c0,0-23.248-17.091-79.482-18.632
			c-5.236-0.146-10.248,2.232-13.357,6.389l-71.594,95.741l24.779,14.888l65.68-70.198l55.387,23.479l16.949,19.685l42.529,22.385
			L2925.291,1090.296z"/>
		<g>
			<path fill="#F7D681" d="M2925.291,1090.296c-22.131,54.902-67.514,49.838-67.732,49.82
				c-34.252,44.842-67.412,112.175-67.412,112.175l96.912,62.554l136.77-130.438
				C3009.203,1136.348,2954.035,1104.181,2925.291,1090.296z"/>
		</g>
		<path fill="#B37247" d="M2956.139,1158.981L2956.139,1158.981c-8.08-12.094-4.684-28.353,7.584-36.319l35.906-23.319l29.26,43.803
			l-35.91,23.315C2980.711,1174.426,2964.217,1171.083,2956.139,1158.981z"/>
		<g>
			<g>
				<defs>
					<path id="SVGID_11_" d="M3005.074,1163.675l-4.996-1.294c-25.016-6.503-39.949-31.771-33.355-56.435l7.514-28.099
						c6.59-24.663,32.215-39.387,57.234-32.886l4.996,1.298c25.014,6.503,39.947,31.767,33.355,56.432l-7.512,28.095
						C3055.717,1155.456,3030.09,1170.182,3005.074,1163.675z"/>
				</defs>
				<use xlink:href="#SVGID_11_"  overflow="visible" fill="#C58457"/>
				<clipPath id="SVGID_12_">
					<use xlink:href="#SVGID_11_"  overflow="visible"/>
				</clipPath>
				<path clip-path="url(#SVGID_12_)" fill="#593116" d="M2966.055,1116.214l5.107-5.417c6.436,0.325,20.936,0.865,20.936,0.865
					l0.936-13.451c0,0,11.166-9.816,6.301-21.404c-0.861-2.058-0.623-4.413,0.348-6.421c1.887-3.912,6.197-3.311,15.648,1.648
					c14.926,7.825,52.426,23.93,66.572,0.234c17.813-29.819-90.238-34.399-90.238-34.399l-28.299,29.651L2966.055,1116.214
					L2966.055,1116.214z"/>
			</g>
			<path fill="#C58457" d="M2982.586,1103.926c-2.354,8.803-11.498,14.059-20.428,11.737c-8.932-2.32-14.262-11.337-11.91-20.14
				c2.361-8.808,11.5-14.063,20.432-11.742C2979.605,1086.106,2984.938,1095.12,2982.586,1103.926z"/>
		</g>
		<path fill="#C58457" d="M2754.32,1218.953c16.363,3.278,26.938,19.014,23.611,35.146c-3.326,16.134-19.281,26.556-35.65,23.276
			c-16.363-3.271-26.936-19.011-23.609-35.145S2737.957,1215.674,2754.32,1218.953z"/>
		<path fill="#C58457" d="M2705.096,1123.845c14.596,2.928,24.029,16.961,21.063,31.353s-17.205,23.691-31.799,20.766
			c-14.596-2.923-24.025-16.96-21.057-31.352C2676.266,1130.219,2690.502,1120.923,2705.096,1123.845z"/>
		<path fill="#F67E5D" d="M2763.895,1203.66c0,34.312-28.205,62.12-63.004,62.12c-34.795,0-63.006-27.809-63.006-62.12
			c0-34.306,28.211-62.121,63.006-62.121C2735.689,1141.539,2763.895,1169.354,2763.895,1203.66z"/>
		<path fill="#C58457" d="M3023.828,1184.407c0,0,38.516,46.274-29.205,82.129c0,0-25.023,49.591-89.113,75.813
			c-6.289,2.573-13.488,1.945-19.266-1.602l-119.082-73.12l7.352-35.377c88.896,47.761,123.422,63.021,123.422,63.021l73.766-61.148
			L3023.828,1184.407z"/>
		<path fill="#131C21" d="M2841.898,1675.359h-15.691c0,0-12.703-15.475-20.93-11.795c-8.223,3.688-11.201,46.484-11.201,46.484
			s88.195,33.519,148.752-3.535c0,0,4.48-11.868-14.205-17.086c-17.66-4.933-47.328,2.028-64.424-33.114
			c-1.773-3.648-6.318-9.668-9.789-7.507C2846.654,1653.645,2835.891,1663.016,2841.898,1675.359z"/>
	</g>
	<ellipse fill="#C1252D" cx="2483.457" cy="1144.884" rx="5.975" ry="5.891"/>
	<g>
		<path fill="#290E07" d="M937.597,1137.352c0,0-1.89-14.73,8.375-10.194c9.367,4.141,0.946,13.627-6.34,13.411L937.597,1137.352z"
			/>
		<path fill="#290E07" d="M920.329,1152.352c0,0-2.831,0.817-3.236-6.228c-0.404-7.044,4.998-11.35,15.639-11.345
			c13.307,0.006,13.765,17.813,8.88,19.075L920.329,1152.352z"/>
		<g>
			<path fill="#F7C8A6" d="M912.013,1205.388l-6.167,43.662c0,0,5.659-3.51,6.167-4.262c0.507-0.751,2.211-6.601,2.211-6.601
				l2.869-25.729L912.013,1205.388z"/>
			<polygon fill="#F7C8A6" points="933.841,1325.744 933.252,1334.321 941.416,1334.321 942.842,1325.129 			"/>
			<polygon fill="#F7C8A6" points="905.926,1304.462 907.306,1315.571 902.637,1321.438 897.969,1307.752 			"/>
			<path fill="#F7C8A6" d="M917.98,1173.755c0,0-10.432,0.84-8.035,11.9l8.977,2.516L917.98,1173.755z"/>
			<g>
				<path fill="#F7C8A6" d="M930.316,1173.828L930.316,1173.828c2.845-0.139,5.038,0.796,4.897-2.008l-0.474-14.959l-10.303,0.5
					l0.475,14.959C925.052,1175.125,927.472,1173.966,930.316,1173.828z"/>
				<path fill="#F8BD99" d="M935.991,1162.442c0,0-1.718,5.484-7.696,5c-5.236-0.426-4.25-5.911-4.25-5.911L935.991,1162.442z"/>
				<path fill="#F7C8A6" d="M928.352,1165.497l1.434,0.019c5.522,0.079,10.063-4.271,10.141-9.716l0.085-5.799
					c0.079-5.445-4.333-9.92-9.854-9.999l-1.434-0.021c-5.521-0.078-10.061,4.272-10.141,9.716l-0.083,5.8
					C918.419,1160.941,922.831,1165.417,928.352,1165.497z"/>
				
					<ellipse transform="matrix(-0.9999 -0.0143 0.0143 -0.9999 1864.1024 2323.6553)" fill="#F7C8A6" cx="940.348" cy="1155.172" rx="3.624" ry="3.574"/>
			</g>
			<polygon fill="#F7C8A6" points="915.775,1174.497 928.607,1170.18 949.25,1171.629 951.761,1180.466 942.228,1210.171 
				944.632,1230.556 918.842,1227.5 918.842,1204.226 			"/>
			<path fill="#F7C8A6" d="M968.676,1201.415l-0.136-0.264l-13.507-26.159l-8.394,4.443l13.02,22.693l-14.393,12.694l3.446,4.527
				l18.674-13.039C968.989,1205.25,969.574,1203.154,968.676,1201.415z"/>
			<path fill="#F7C8A6" d="M917.655,1179.929l-0.209,8.038l-0.146,8.038l-0.192,16.072l-0.003,0.241c0,0.045-0.004,0.096-0.01,0.14
				l-1.867,14.682c-0.29,2.449-0.554,4.901-0.744,7.358c-0.091,1.229-0.201,2.458-0.258,3.689l-0.103,1.848l-0.05,0.923
				c-0.065,0.305,0.166,0.634,1.687,1.084l-7.257-1.591c1.575-0.166,0.011,0.311,0,0l0.11-0.917l0.219-1.839
				c0.158-1.222,0.261-2.45,0.384-3.678c0.239-2.453,0.403-4.913,0.542-7.377l0.705-14.788l-0.013,0.383l0.164-16.048l-0.493-8.021
				l-0.175-2.511c-0.208-3.002,1.118-5.571,4.17-5.643L917.655,1179.929z"/>
			<path fill="#10293F" d="M942.842,1325.129c6.875-21.233,1.79-40.305,1.79-40.305s-1.053-7.922,3.102-30.594
				c4.156-22.671-4.439-31.413-4.439-31.413h-24.452l-3.067,13.861c0,0-9.929,5.363-23.731,27.319l-4.995,5.98
				c-1.339,1.604-1.627,3.824-0.738,5.708l11.659,32.065l7.957-3.29c0,0-1.047-24.013-5.924-28.821l28.514-21.293
				c0,0,1.443,29.685,2.158,32.145c0.9,3.099,3.786,22.993,3.167,39.252l0,0L942.842,1325.129z"/>
			<path fill="#FA654F" d="M944.154,1171.272c0,0-6.573,16.121,3.576,21.755l-3.784,12.36c0,0-15.351-5.094-25.103-1.162
				c0,0-9.793-8.001-2.221-22.367c0,0,1.228-6.345,3.087-8.685l2.735-0.921c0,0-3.564,9.925-0.015,10.454
				c3.549,0.531,12.136,2.581,17.199-11.753L944.154,1171.272z"/>
			<path fill="#F74A39" d="M918.842,1204.226v2.977c0,0,8.203-2.429,24.098,0.749l1.005-2.563
				C943.945,1205.388,929.935,1199.739,918.842,1204.226z"/>
			<g>
				<path fill="#F7C8A6" d="M949.239,1226.809c-3.366,1.092-6.994-0.713-8.102-4.033c-1.106-3.32,0.725-6.897,4.092-7.988
					c3.367-1.092,6.994,0.714,8.102,4.034C954.438,1222.142,952.607,1225.717,949.239,1226.809z"/>
			</g>
			<path fill="#F7C8A6" d="M949.25,1171.629c0,0,8.921,0,7.933,10.084c-0.886,9.032-10.543-2.277-10.543-2.277L949.25,1171.629z"/>
			<path fill="#FA654F" d="M943.287,1331.635c-0.209-0.513-0.825-0.701-1.229-0.367c-0.791,0.654-1.871,2.238-4.036,2.04
				c-2.247-0.205-3.507-1.683-3.854-2.541c-0.183-0.449-0.67-0.681-1.088-0.488l-13.956,6.237c-0.813,0.376-1.433,1.076-1.724,1.95
				l0,0c-0.273,0.819,0.362,1.702,1.212,1.681l24.101-0.631c0.923-0.021,1.604-0.841,1.492-1.797l-0.586-5.19
				c-0.01-0.08-0.03-0.155-0.059-0.229L943.287,1331.635z"/>
			<path fill="#FA654F" d="M906.891,1310.256c-0.55-0.1-1.043,0.313-0.972,0.828c0.139,1.009,0.918,2.755-0.408,4.453
				c-1.377,1.764-3.316,2.023-4.236,1.854c-0.485-0.087-0.944,0.195-1.002,0.646l-2.11,14.966c-0.113,0.877,0.157,1.769,0.75,2.477
				l0,0c0.556,0.666,1.653,0.608,2.09-0.111l12.337-20.42c0.476-0.782,0.136-1.788-0.743-2.205l-4.764-2.285
				c-0.071-0.034-0.148-0.06-0.226-0.073L906.891,1310.256z"/>
		</g>
		<path fill="#290E07" d="M929.79,1143.006c0,0,1.705,3.955,7.736,6.384c0,0-0.802,5.73,2.875,2.208
			c3.626-3.475-4.41-12.002-4.41-12.002S929.666,1136.649,929.79,1143.006z"/>
		<path fill="#290E07" d="M935.667,1140.441c0,0-4.331,5.782-16.858,5.57l1.521-7.343l12.402-1.65L935.667,1140.441z"/>
	</g>
	<g>
		<g>
			<g>
				<path fill="#263238" d="M3031.512,871.624c0.063,0.011,0.215-0.716,0.449-2.102c0.248-1.571,0.561-3.588,0.951-6.083
					c0.416-2.644,0.871-5.883,1.221-9.666c0.373-3.776,0.918-8.072,1.154-12.853c0.334-4.772,0.66-10,0.736-15.624
					c0.232-5.626,0.098-11.634,0.027-17.962c-0.383-12.639-1.381-26.529-3.352-41.005c-2.066-14.464-4.912-28.111-8.006-40.385
					c-1.666-6.112-3.182-11.935-4.945-17.286c-1.613-5.397-3.363-10.346-4.99-14.851c-1.535-4.538-3.234-8.525-4.633-12.064
					c-1.371-3.553-2.693-6.549-3.82-8.986c-1.059-2.297-1.912-4.151-2.582-5.601c-0.607-1.272-0.953-1.926-1.008-1.903
					c-0.059,0.023,0.182,0.728,0.684,2.044c0.588,1.478,1.34,3.378,2.271,5.723c1.025,2.469,2.254,5.497,3.537,9.072
					c1.303,3.562,2.92,7.57,4.371,12.122c1.547,4.517,3.223,9.466,4.766,14.859c1.701,5.35,3.152,11.165,4.771,17.256
					c2.996,12.248,5.777,25.835,7.834,40.24c1.963,14.404,3.006,28.227,3.475,40.811c0.113,6.302,0.307,12.285,0.133,17.888
					c-0.01,5.605-0.268,10.818-0.518,15.577c-0.154,4.768-0.609,9.06-0.889,12.833c-0.258,3.784-0.609,7.028-0.92,9.678
					c-0.252,2.509-0.461,4.536-0.623,6.116C3031.488,870.877,3031.451,871.615,3031.512,871.624z"/>
			</g>
		</g>
		<g>
			<g>
				<path fill="#263238" d="M3191.924,653.368c-0.055-0.024-0.385,0.675-0.955,2.026c-0.623,1.526-1.424,3.497-2.416,5.946
					c-2.1,5.16-4.873,12.731-8.053,22.171c-3.211,9.43-6.625,20.793-10.016,33.514c-3.299,12.744-6.52,26.868-9.238,41.813
					c-2.652,14.96-4.539,29.315-5.877,42.404c-1.244,13.099-1.988,24.928-2.256,34.874c-0.299,9.937-0.328,17.989-0.152,23.549
					c0.08,2.63,0.152,4.754,0.201,6.397c0.066,1.463,0.127,2.227,0.191,2.227c0.061,0,0.115-0.771,0.164-2.231
					c0.033-1.642,0.078-3.763,0.131-6.396c0.031-5.554,0.252-13.587,0.709-23.501c0.432-9.915,1.303-21.704,2.635-34.759
					c1.418-13.044,3.352-27.346,5.992-42.266c2.707-14.897,5.873-28.98,9.08-41.714c3.291-12.708,6.576-24.078,9.621-33.536
					c3.02-9.464,5.613-17.089,7.508-22.313c0.869-2.493,1.568-4.501,2.107-6.051
					C3191.764,654.132,3191.982,653.387,3191.924,653.368z"/>
			</g>
		</g>
		<g>
			<g>
				<path fill="#263238" d="M3153.35,868.287c0.375-0.307-29.311-36.029-66.297-79.785c-36.996-43.768-67.285-78.984-67.656-78.678
					c-0.377,0.307,29.301,36.028,66.301,79.793C3122.686,833.37,3152.979,868.599,3153.35,868.287z"/>
			</g>
		</g>
		<g>
			<g>
				<path fill="#263238" d="M3117.982,865.438c0.1-0.068-0.814-1.515-2.563-4.071c-1.734-2.565-4.355-6.198-7.701-10.612
					c-6.678-8.839-16.4-20.704-28.01-33.044c-11.625-12.329-22.912-22.766-31.355-29.981c-4.225-3.616-7.701-6.464-10.17-8.356
					c-2.457-1.906-3.848-2.915-3.93-2.82c-0.078,0.092,1.168,1.272,3.484,3.335c2.557,2.289,5.842,5.232,9.781,8.757
					c8.211,7.436,19.316,17.968,30.898,30.252c11.561,12.291,21.393,23.983,28.311,32.608c3.273,4.135,6.01,7.578,8.135,10.261
					C3116.777,864.196,3117.883,865.512,3117.982,865.438z"/>
			</g>
		</g>
		<g>
			<g>
				<path fill="#263238" d="M3079.424,869.065c0.377-0.304-9.168-12.436-21.314-27.096c-12.16-14.661-22.316-26.299-22.695-25.996
					c-0.377,0.305,9.172,12.431,21.322,27.096C3068.889,857.729,3079.047,869.369,3079.424,869.065z"/>
			</g>
		</g>
		<g>
			<g>
				<path fill="#263238" d="M3155.396,827.015c0.041-0.045-0.443-0.545-1.396-1.456c-1.105-1.026-2.504-2.324-4.225-3.92
					c-1.863-1.675-4.119-3.738-6.662-6.217c-2.555-2.466-5.543-5.193-8.654-8.399c-6.363-6.275-13.654-14.018-21.445-22.876
					c-7.711-8.925-15.883-18.995-23.91-29.97c-7.965-11.022-15.018-21.887-21.109-31.953c-6.01-10.121-11.109-19.419-15.09-27.378
					c-2.08-3.929-3.74-7.599-5.291-10.772c-1.563-3.173-2.814-5.946-3.828-8.22c-0.98-2.121-1.777-3.843-2.412-5.204
					c-0.566-1.181-0.895-1.796-0.947-1.771c-0.057,0.021,0.158,0.674,0.621,1.903c0.553,1.396,1.246,3.165,2.105,5.342
					c0.916,2.315,2.084,5.13,3.563,8.35c1.467,3.226,3.053,6.934,5.068,10.916c3.848,8.051,8.854,17.439,14.807,27.645
					c6.041,10.152,13.08,21.088,21.08,32.155c8.061,11.021,16.301,21.108,24.115,30.008c7.885,8.832,15.295,16.518,21.793,22.698
					c3.178,3.159,6.23,5.833,8.859,8.235c2.613,2.42,4.947,4.415,6.879,6.014c1.813,1.499,3.285,2.717,4.451,3.679
					C3154.799,826.648,3155.357,827.061,3155.396,827.015z"/>
			</g>
		</g>
		<g>
			<g>
				<path fill="#263238" d="M3158.35,783.509c0.086-0.083-1.209-1.591-3.619-4.242c-2.43-2.631-5.889-6.489-10.107-11.301
					c-8.416-9.629-19.592-23.335-30.531-39.456c-10.922-16.136-19.576-31.514-25.596-42.765c-2.863-5.444-5.238-9.953-7.039-13.378
					c-1.648-3.166-2.615-4.893-2.727-4.844c-0.115,0.052,0.645,1.88,2.111,5.138c1.447,3.265,3.674,7.933,6.541,13.646
					c5.752,11.417,14.271,26.959,25.244,43.173c10.99,16.195,22.375,29.851,31.063,39.301c4.35,4.722,7.955,8.46,10.541,10.952
					C3156.799,782.245,3158.262,783.592,3158.35,783.509z"/>
			</g>
		</g>
		<g>
			<g>
				<path fill="#263238" d="M3164.211,747.948c0.203-0.191-3.271-4.004-8.484-10.486c-5.23-6.461-12.104-15.667-18.924-26.333
					c-6.795-10.686-12.15-20.822-15.477-28.399c-3.369-7.561-4.873-12.471-5.164-12.387c-0.121,0.033,0.162,1.287,0.773,3.536
					c0.623,2.244,1.656,5.461,3.24,9.32c3.053,7.77,8.289,18.092,15.131,28.855c6.865,10.742,13.953,19.897,19.459,26.19
					c2.723,3.174,5.063,5.626,6.727,7.274C3163.16,747.163,3164.125,748.028,3164.211,747.948z"/>
			</g>
		</g>
		<g>
			<g>
				<path fill="#263238" d="M3175.145,708.31c0.43-0.294-5.066-8.631-10.781-19.485c-5.754-10.834-9.539-20.054-10.025-19.87
					c-0.432,0.142,2.648,9.721,8.463,20.676C3168.574,700.6,3174.779,708.574,3175.145,708.31z"/>
			</g>
		</g>
		<g>
			<g>
				<path fill="#263238" d="M3178.738,694.834c-0.053-0.03-0.51,0.63-1.33,1.913c-0.895,1.438-2.064,3.317-3.514,5.646
					c-2.982,4.937-7.449,12.002-13.127,20.62c-5.652,8.632-12.699,18.708-20.82,29.681c-8.197,10.91-17.52,22.688-27.799,34.644
					c-10.336,11.915-20.643,22.87-30.266,32.592c-9.689,9.657-18.656,18.126-26.396,25.001c-7.721,6.9-14.084,12.375-18.551,16.068
					c-2.104,1.781-3.791,3.214-5.096,4.315c-1.154,1.005-1.734,1.552-1.703,1.599c0.041,0.045,0.703-0.411,1.928-1.324
					c1.354-1.039,3.113-2.392,5.307-4.069c4.609-3.535,11.102-8.872,18.945-15.669c7.869-6.777,16.943-15.17,26.723-24.79
					c9.715-9.689,20.084-20.642,30.455-32.593c10.305-11.995,19.621-23.831,27.764-34.83c8.078-11.051,15.033-21.227,20.563-29.963
					c5.555-8.719,9.865-15.891,12.668-20.941c1.334-2.403,2.402-4.328,3.23-5.816
					C3178.439,695.579,3178.793,694.863,3178.738,694.834z"/>
			</g>
		</g>
		<g>
			<g>
				<path fill="#263238" d="M3147.908,666.438c-0.061-0.019-0.352,0.603-0.848,1.797c-0.553,1.377-1.248,3.114-2.107,5.252
					c-0.881,2.292-1.959,5.093-3.354,8.293c-1.387,3.202-2.809,6.907-4.701,10.871c-3.58,8.014-8.188,17.398-13.822,27.549
					c-5.709,10.107-12.422,20.978-20.215,31.895c-7.857,10.878-16.027,20.732-23.828,29.374
					c-7.873,8.579-15.369,15.938-21.912,21.854c-3.191,3.05-6.307,5.553-8.939,7.869c-2.623,2.328-4.982,4.22-6.912,5.763
					c-1.785,1.475-3.24,2.673-4.393,3.623c-0.99,0.842-1.494,1.312-1.459,1.357c0.037,0.05,0.613-0.324,1.678-1.078
					c1.207-0.886,2.73-1.999,4.604-3.371c2-1.465,4.424-3.287,7.119-5.549c2.701-2.251,5.883-4.702,9.141-7.701
					c6.678-5.82,14.301-13.126,22.279-21.69c7.906-8.624,16.164-18.509,24.063-29.445c7.834-10.975,14.551-21.934,20.205-32.132
					c5.578-10.242,10.094-19.726,13.539-27.827c1.824-4.009,3.17-7.76,4.473-11.005c1.311-3.239,2.297-6.086,3.084-8.416
					c0.73-2.181,1.322-3.962,1.793-5.367C3147.787,667.118,3147.963,666.46,3147.908,666.438z"/>
			</g>
		</g>
		<g>
			<g>
				<path fill="#263238" d="M3111.188,671.068c-0.117-0.039-0.885,1.729-2.178,4.962c-1.262,3.239-3.213,7.874-5.766,13.538
					c-5.086,11.332-13.033,26.604-23.754,42.278c-10.76,15.658-22.174,28.623-30.939,37.5c-4.379,4.443-8.018,7.963-10.594,10.322
					c-2.559,2.387-3.939,3.749-3.859,3.84c0.078,0.091,1.611-1.102,4.316-3.335c2.729-2.212,6.51-5.604,11.02-9.962
					c9.037-8.691,20.686-21.625,31.52-37.39c10.795-15.779,18.623-31.262,23.436-42.767c2.416-5.754,4.203-10.478,5.266-13.796
					C3110.752,672.952,3111.303,671.108,3111.188,671.068z"/>
			</g>
		</g>
		<g>
			<g>
				<path fill="#263238" d="M3074.9,668.634c-0.258-0.1-2.215,4.608-5.646,12.084c-3.424,7.473-8.439,17.675-14.697,28.553
					c-6.275,10.877-12.6,20.341-17.359,27.069c-4.764,6.731-7.854,10.798-7.643,10.969c0.092,0.07,0.98-0.86,2.496-2.612
					c1.531-1.744,3.635-4.349,6.156-7.637c5.039-6.571,11.568-15.989,17.885-26.929c6.297-10.943,11.16-21.298,14.307-28.931
					c1.58-3.813,2.771-6.933,3.51-9.119C3074.656,669.899,3075.012,668.671,3074.9,668.634z"/>
			</g>
		</g>
		<g>
			<g>
				<path fill="#263238" d="M3035.455,666.021c-0.473-0.167-4.072,8.612-8.777,19.314c-4.686,10.717-8.705,19.317-8.256,19.544
					c0.42,0.212,5.166-8.081,9.875-18.854C3033.025,675.267,3035.9,666.177,3035.455,666.021z"/>
			</g>
		</g>
		<g>
			<g>
				<path fill="#263238" d="M3159.42,781.733c-0.346-0.34-20.16,18.645-44.25,42.4c-24.098,23.767-43.348,43.302-43.004,43.643
					c0.346,0.338,20.154-18.649,44.254-42.412C3140.512,801.608,3159.764,782.074,3159.42,781.733z"/>
			</g>
		</g>
		<g>
			<g>
				<path fill="#263238" d="M3154.246,823.997c-0.141-0.176-3.002,1.764-7.332,5.276c-4.332,3.508-10.078,8.652-15.965,14.78
					c-5.879,6.146-10.756,12.1-14.059,16.563c-3.311,4.461-5.111,7.388-4.926,7.518c0.211,0.149,2.363-2.521,5.904-6.765
					c3.543-4.241,8.535-10.021,14.363-16.117c5.838-6.086,11.408-11.323,15.502-15.053
					C3151.83,826.473,3154.41,824.197,3154.246,823.997z"/>
			</g>
		</g>
		<g>
			<path fill="#E7505B" d="M2981.699,656.338L2981.699,656.338c0,7.127,5.869,12.898,13.098,12.876l197.127-0.58l72.959,41.198
				v-63.861l-270-2.507C2987.617,643.394,2981.699,649.18,2981.699,656.338z"/>
		</g>
		<g>
			<rect x="3264.883" y="270.055" fill="#445A64" width="61.867" height="510.818"/>
		</g>
		<g>
			<path fill="#263238" d="M3325.002,512.164l181.693,173.484c9.627,9.191,15.027,21.864,14.949,35.077l-6.164,1003.573h37.613
				V710.196c0-15.813-6.533-30.938-18.09-41.896L3326.75,470.924"/>
		</g>
	</g>
	<rect x="163" y="1716" fill="#263238" width="3425" height="28"/>
</g>
</svg>
